<?xml version="1.0" encoding="utf-8"?>
<!-- Generator: Adobe Illustrator 21.1.0, SVG Export Plug-In . SVG Version: 6.00 Build 0)  -->
<svg version="1.1" id="Layer_1" xmlns="http://www.w3.org/2000/svg" xmlns:xlink="http://www.w3.org/1999/xlink" x="0px" y="0px"
	 width="50px" height="50px" viewBox="0 0 50 50" style="enable-background:new 0 0 50 50;" xml:space="preserve">
<style type="text/css">
	.st0{fill:#263238;}
	.st1{fill:#F4C898;}
	.st2{opacity:0.1;fill:#112F8E;}
	.st3{fill:#40C4FF;}
	.st4{fill:#29B6F6;}
	.st5{fill:#0288D1;}
	.st6{fill:#FFFFFF;}
	.st7{opacity:5.000000e-02;fill:#112F8E;}
	.st8{fill:#8BC34A;}
</style>
<g>
	<g>
		<path class="st0" d="M14.5,40.9l15.8-0.2c0,0,13.8-33.4-1.9-38.5c-5.3-3-12.1-2.7-16.1,2.4C4.6,14.5,14.5,40.9,14.5,40.9z"/>
		<path class="st1" d="M12.3,16.2c0.3,1.5,1.6,3.2,2.1,3.1c0.5-0.1,0.7-1.4,0.4-2.9c-0.3-1.5-1-2.6-1.6-2.4
			C12.7,14.1,12,14.7,12.3,16.2z"/>
		<path class="st1" d="M32.1,15c-0.3,1.5-1.6,3.2-2.1,3.1c-0.5-0.1-0.7-1.4-0.4-2.9c0.3-1.5,1-2.6,1.6-2.4
			C31.7,12.9,32.4,13.6,32.1,15z"/>
		<path class="st1" d="M26.5,25.8v-3.3H18c0,0,0,1.5,0,3.3c0,1.8-1.7,5-3.8,5.4l-5.5,2.1c-2.1,0.4-3.8,2.4-3.8,4.5L4,45.5h36.3
			l-0.8-7.7c0-2.1-1.7-4.2-3.8-4.5l-5.5-2.1C28.2,30.8,26.5,27.6,26.5,25.8z"/>
		<path class="st2" d="M29.6,31c-1.8-0.8-3.1-3.6-3.1-5.2v-3.3H18c0,0,0,1.5,0,3.3c0,0.1,0,0.3,0,0.4C19,27.2,24.9,32.3,29.6,31z"/>
		<path class="st3" d="M39.6,37.8c0-2.1-1.7-4.2-3.8-4.5l-5.5-2.1c-0.8-0.1,0.4,5.9-8,5.9c-8.4,0-7.4-6-8.1-5.9l-5.5,2.1
			c-2.1,0.4-3.8,2.4-3.8,4.5L3.7,49.2h37.1L39.6,37.8z"/>
		<path class="st1" d="M14.1,18.5c0.4,1.2,0.3,2.8,1.1,4c0.8,1.3,4.9,4.9,7,4.9s5.9-3.6,6.9-4.9c1-1.2,1.6-4.9,1.9-7.4
			c-2.3,0.1-1.7-9.4-4.1-8.4c-3.8,3-7.8,2.4-10.1,4.4c-1.7,1.5-0.8,4.1-3,4.1C13.6,16.6,13.9,17.9,14.1,18.5z"/>
		<path class="st0" d="M31.8,16.2c-0.2,1.9-0.5,3.4-1.9,3.2c-1.4-0.2-0.6-7,0.9-6.9C32.2,12.7,32.1,14.3,31.8,16.2z"/>
		<path class="st4" d="M32.5,16.3c-0.2,1.7-1,2.9-1.8,2.8c-0.8-0.1-0.1-6.1,0.8-6C32.2,13.2,32.7,14.6,32.5,16.3z"/>
		<path class="st5" d="M31,19.1c0.7-0.2,1.3-1.4,1.5-2.8c0.2-1.4-0.1-2.7-0.8-3.1C31.5,15.1,31.2,17.8,31,19.1z"/>
		<path class="st5" d="M25.4,25.6c-0.1,0-0.2-0.1-0.2-0.2c0-0.1,0.1-0.2,0.2-0.2c2.1,0,4.4-1.3,5.8-3.2c1.1-1.6,1.4-3.3,0.9-4.8
			c-0.3-0.9-0.2-1.8-0.2-2.3l0-0.1c0.4-3.6-0.3-6.5-2.1-8.6c-1.7-1.9-4.4-3-7.4-3c-2.5,0-5,1-6.8,2.7c-0.1,0.1-0.2,0.1-0.3,0
			c-0.1-0.1-0.1-0.2,0-0.3c1.9-1.8,4.4-2.8,7-2.8c3.2,0,5.9,1.1,7.7,3.1c1.9,2.1,2.7,5.2,2.2,8.9l0,0.1c-0.1,0.5-0.1,1.3,0.2,2.2
			c0.6,1.6,0.2,3.5-1,5.1C30,24.3,27.6,25.6,25.4,25.6z"/>
		<ellipse class="st0" cx="24.5" cy="25.4" rx="1.2" ry="0.9"/>
		<path class="st6" d="M17.5,35.8c8.3-2,10.1-6.7,10.1-6.7l5,3C32.6,32.1,24.9,41.8,17.5,35.8z"/>
		<path class="st6" d="M17.5,35.8c-1.6-3.1-1-6.3-1-6.3l-4.3,2.4C12.2,31.9,14.2,36.7,17.5,35.8z"/>
		<path class="st6" d="M15.7,37.5l1.7-1.8c0.2-0.2,0.5-0.2,0.7,0l2.1,2c0.2,0.2,0.3,0.5,0.2,0.8L19,44.8c-0.1,0.3-0.2,0.3-0.3,0
			l-3.1-6.5C15.5,38,15.5,37.7,15.7,37.5z"/>
		<path class="st7" d="M18.1,35.8l2.1,2c0.2,0.2,0.3,0.5,0.2,0.8L19,44.8c-0.1,0.3-0.1,0.2-0.2,0l-1-8.8
			C17.8,35.6,17.9,35.6,18.1,35.8z"/>
		<path class="st6" d="M15,35.3l1.9,0.1c0.3,0,0.5,0.2,0.5,0.5L17.3,38c0,0.3-0.2,0.6-0.4,0.7l-4.4,2.5c-0.2,0.1-0.3,0-0.2-0.2
			l2.2-5.3C14.5,35.4,14.8,35.3,15,35.3z"/>
		<path class="st7" d="M17.4,35.8L17.3,38c0,0.3-0.2,0.6-0.4,0.7l-4.4,2.5c-0.2,0.1-0.3,0.1-0.1-0.1l4.7-5.4
			C17.2,35.5,17.4,35.5,17.4,35.8z"/>
		<circle class="st6" cx="17.5" cy="35.8" r="1"/>
		<circle class="st7" cx="17.6" cy="35.8" r="0.5"/>
	</g>
	<ellipse transform="matrix(0.7713 -0.6365 0.6365 0.7713 -18.3804 35.2774)" class="st8" cx="39.9" cy="43.2" rx="6.4" ry="6.4"/>
	<path class="st6" d="M38.2,40.1c0.1-0.1,0.2,0,0.3,0.1l1,1.6c0.1,0.1,0,0.2-0.1,0.3c-0.1,0.1-0.3,0.1-0.5,0.2c-0.1,0-0.1,0-0.1,0.1
		c-0.1,0.4,0.3,0.9,0.8,1.5c0.5,0.6,0.8,1,1.3,1c0.1,0,0.1,0,0.1-0.1c0-0.2,0.1-0.3,0.2-0.4c0.1-0.1,0.2-0.1,0.3,0l1.4,1.2
		c0.1,0.1,0.1,0.2,0,0.3c-0.2,0.2-0.7,0.5-1,0.5c-0.9,0-2.2-0.9-3-1.8c-0.8-0.9-1.4-2.5-1.3-3.4C37.7,40.6,38,40.2,38.2,40.1z"/>
</g>
</svg>
