<?xml version="1.0" encoding="utf-8"?>
<!-- Generator: Adobe Illustrator 21.1.0, SVG Export Plug-In . SVG Version: 6.00 Build 0)  -->
<svg version="1.1" id="Layer_1" xmlns="http://www.w3.org/2000/svg" xmlns:xlink="http://www.w3.org/1999/xlink" x="0px" y="0px"
	 width="262px" height="51px" viewBox="0 0 262 51" style="enable-background:new 0 0 262 51;" xml:space="preserve">
<style type="text/css">
	.st0{fill:#333333;}
	.st1{fill:#333333;stroke:#333333;stroke-width:0.2;stroke-miterlimit:10;}
	.st2{fill:#FF6300;}
	.st3{fill:#1C7AC0;}
</style>
<g>
	<g>
		<g>
			<g>
				<g>
					<path class="st0" d="M105.1,38.9c0-0.1-0.1-0.2-0.2-0.3c-0.1-0.1-0.2-0.1-0.3-0.1c-0.1,0-0.2,0-0.3,0.1s-0.2,0.2-0.2,0.3
						l-2.7,6.7c0,0.1,0,0.1,0,0.2c0,0.1,0,0.3,0.1,0.3c0.1,0.1,0.2,0.1,0.4,0.1c0.1,0,0.2,0,0.3-0.1s0.1-0.1,0.2-0.3l0.7-1.6h3.3
						l0.7,1.5c0.1,0.1,0.1,0.2,0.2,0.3c0.1,0.1,0.2,0.1,0.3,0.1s0.2,0,0.3-0.1c0.1-0.1,0.1-0.2,0.1-0.4c0-0.1,0-0.1,0-0.2
						L105.1,38.9z M103.4,43.3l1.3-3l1.3,3H103.4z M122.3,40.8c-0.4-0.3-0.9-0.4-1.4-0.4c-0.4,0-0.7,0.1-1.1,0.3
						c-0.3,0.2-0.6,0.4-0.8,0.7v-0.3c0-0.2,0-0.3-0.1-0.4c-0.1-0.1-0.2-0.2-0.4-0.2s-0.3,0.1-0.4,0.2c-0.1,0.1-0.1,0.2-0.1,0.4v6.8
						c0,0.2,0,0.3,0.1,0.4c0.1,0.1,0.2,0.2,0.4,0.2c0.2,0,0.3-0.1,0.4-0.2c0.1-0.1,0.1-0.2,0.1-0.4v-2.4c0.2,0.2,0.5,0.5,0.8,0.6
						c0.3,0.2,0.7,0.3,1.1,0.3c0.5,0,0.9-0.1,1.3-0.4c0.4-0.3,0.7-0.6,1-1.1c0.3-0.5,0.3-1,0.3-1.5s-0.1-1.1-0.3-1.5
						C123.1,41.4,122.7,41.1,122.3,40.8z M122.4,44.3c-0.2,0.3-0.4,0.6-0.6,0.7c-0.3,0.2-0.6,0.3-0.9,0.3c-0.3,0-0.7-0.1-0.9-0.3
						c-0.3-0.2-0.5-0.4-0.6-0.7c-0.2-0.3-0.2-0.7-0.2-1c0-0.4,0.1-0.7,0.2-1c0.2-0.3,0.4-0.6,0.6-0.7c0.3-0.2,0.6-0.3,0.9-0.3
						c0.3,0,0.6,0.1,0.9,0.3c0.3,0.2,0.5,0.4,0.6,0.7c0.2,0.3,0.2,0.7,0.2,1C122.6,43.7,122.6,44.1,122.4,44.3z M128.6,43l1.8-1.6
						c0.1-0.1,0.2-0.3,0.2-0.4c0-0.1-0.1-0.2-0.2-0.3c-0.1-0.1-0.2-0.2-0.3-0.2c-0.1,0-0.3,0.1-0.4,0.2l-2.6,2.4v-4.3
						c0-0.1,0-0.3-0.1-0.4c-0.1-0.1-0.2-0.2-0.4-0.2c-0.2,0-0.3,0.1-0.4,0.2c-0.1,0.1-0.1,0.2-0.1,0.4v6.9c0,0.1,0,0.3,0.1,0.4
						c0.1,0.1,0.2,0.2,0.4,0.2c0.1,0,0.3-0.1,0.4-0.2c0.1-0.1,0.1-0.2,0.1-0.4v-1.4l0.7-0.6l2.1,2.2c0.1,0.1,0.2,0.2,0.4,0.2
						c0.1,0,0.2-0.1,0.4-0.2c0.1-0.1,0.2-0.2,0.2-0.4c0-0.1-0.1-0.3-0.2-0.4L128.6,43z M148.6,38.9c0-0.1-0.1-0.2-0.2-0.3
						c-0.1-0.1-0.2-0.1-0.3-0.1c-0.1,0-0.2,0-0.3,0.1s-0.2,0.2-0.2,0.3l-2.7,6.7c0,0.1,0,0.1,0,0.2c0,0.1,0,0.3,0.1,0.3
						c0.1,0.1,0.2,0.1,0.4,0.1c0.1,0,0.2,0,0.3-0.1c0.1-0.1,0.1-0.1,0.2-0.3l0.7-1.6h3.3l0.7,1.5c0.1,0.1,0.1,0.2,0.2,0.3
						s0.2,0.1,0.3,0.1s0.2,0,0.3-0.1s0.1-0.2,0.1-0.4c0-0.1,0-0.1,0-0.2L148.6,38.9z M146.8,43.3l1.3-3l1.3,3H146.8z M157.7,40.8
						c-0.4-0.3-0.9-0.4-1.4-0.4c-0.4,0-0.7,0.1-1.1,0.3c-0.3,0.2-0.6,0.4-0.8,0.7v-0.3c0-0.2,0-0.3-0.1-0.4
						c-0.1-0.1-0.2-0.2-0.4-0.2c-0.2,0-0.3,0.1-0.4,0.2c-0.1,0.1-0.1,0.2-0.1,0.4v6.8c0,0.2,0,0.3,0.1,0.4c0.1,0.1,0.2,0.2,0.4,0.2
						c0.2,0,0.3-0.1,0.4-0.2c0.1-0.1,0.1-0.2,0.1-0.4v-2.4c0.2,0.2,0.5,0.5,0.8,0.6c0.3,0.2,0.7,0.3,1.1,0.3c0.5,0,0.9-0.1,1.3-0.4
						c0.4-0.3,0.7-0.6,1-1.1c0.2-0.5,0.3-1,0.3-1.5s-0.1-1.1-0.3-1.5C158.4,41.4,158.1,41.1,157.7,40.8z M157.8,44.3
						c-0.2,0.3-0.4,0.6-0.6,0.7c-0.3,0.2-0.6,0.3-0.9,0.3c-0.3,0-0.7-0.1-0.9-0.3c-0.3-0.2-0.5-0.4-0.6-0.7c-0.2-0.3-0.2-0.7-0.2-1
						c0-0.4,0.1-0.7,0.2-1c0.2-0.3,0.4-0.6,0.6-0.7c0.3-0.2,0.6-0.3,0.9-0.3c0.3,0,0.6,0.1,0.9,0.3c0.3,0.2,0.5,0.4,0.6,0.7
						c0.2,0.3,0.2,0.7,0.2,1S157.9,44.1,157.8,44.3z M164.3,40.4c-0.4,0-0.8,0.1-1.1,0.3c-0.3,0.2-0.6,0.5-0.8,0.8v-0.4
						c0-0.1,0-0.3-0.1-0.4c-0.1-0.1-0.2-0.2-0.4-0.2c-0.1,0-0.3,0.1-0.4,0.2c-0.1,0.1-0.1,0.2-0.1,0.4v4.5c0,0.2,0,0.3,0.1,0.4
						c0.1,0.1,0.2,0.2,0.4,0.2c0.2,0,0.3-0.1,0.4-0.2c0.1-0.1,0.1-0.2,0.1-0.4v-2.9c0-0.3,0.1-0.5,0.2-0.7c0.1-0.2,0.3-0.4,0.6-0.5
						c0.2-0.1,0.5-0.2,0.8-0.2c0.5,0,0.8,0.1,1,0.4c0.2,0.3,0.3,0.6,0.3,1v2.9c0,0.1,0,0.3,0.1,0.4c0.1,0.1,0.2,0.2,0.4,0.2
						c0.2,0,0.3-0.1,0.4-0.2c0.1-0.1,0.1-0.2,0.1-0.4v-2.9C166.2,41.2,165.6,40.4,164.3,40.4z M185.4,45.1h-3.1v-6
						c0-0.1-0.1-0.3-0.2-0.4c-0.1-0.1-0.2-0.2-0.4-0.2c-0.2,0-0.3,0.1-0.4,0.2c-0.1,0.1-0.2,0.2-0.2,0.4v6.5c0,0.1,0,0.3,0.1,0.4
						c0.1,0.1,0.2,0.2,0.4,0.2h3.6c0.2,0,0.3,0,0.4-0.1c0.1-0.1,0.1-0.2,0.1-0.4s0-0.3-0.1-0.4C185.7,45.2,185.5,45.1,185.4,45.1z
						 M192.3,40.8c-0.4-0.3-0.9-0.4-1.4-0.4c-0.5,0-1,0.1-1.4,0.4c-0.4,0.3-0.8,0.6-1.1,1.1s-0.4,1-0.4,1.5s0.1,1.1,0.4,1.5
						c0.3,0.5,0.6,0.8,1.1,1.1c0.4,0.3,0.9,0.4,1.4,0.4c0.5,0,1-0.1,1.4-0.4c0.4-0.3,0.8-0.6,1.1-1.1s0.4-1,0.4-1.5
						s-0.1-1.1-0.4-1.5C193.1,41.4,192.7,41,192.3,40.8z M192.4,44.3c-0.2,0.3-0.4,0.6-0.7,0.7c-0.3,0.2-0.6,0.3-0.9,0.3
						c-0.3,0-0.7-0.1-0.9-0.3c-0.3-0.2-0.5-0.4-0.7-0.7c-0.2-0.3-0.2-0.7-0.2-1.1c0-0.4,0.1-0.8,0.2-1.1c0.2-0.3,0.4-0.6,0.7-0.7
						c0.3-0.2,0.6-0.3,0.9-0.3s0.7,0.1,0.9,0.3c0.3,0.2,0.5,0.4,0.7,0.7c0.2,0.3,0.2,0.7,0.2,1.1C192.7,43.7,192.6,44.1,192.4,44.3z
						 M206.9,40.4c-0.4,0-0.8,0.1-1.1,0.3c-0.3,0.2-0.6,0.5-0.8,0.8v-0.4c0-0.1,0-0.3-0.1-0.4c-0.1-0.1-0.2-0.2-0.4-0.2
						c-0.1,0-0.3,0.1-0.4,0.2c-0.1,0.1-0.1,0.2-0.1,0.4v4.5c0,0.2,0,0.3,0.1,0.4c0.1,0.1,0.2,0.2,0.4,0.2c0.2,0,0.3-0.1,0.4-0.2
						c0.1-0.1,0.1-0.2,0.1-0.4v-2.9c0-0.3,0.1-0.5,0.2-0.7c0.1-0.2,0.3-0.4,0.6-0.5c0.2-0.1,0.5-0.2,0.8-0.2c0.5,0,0.8,0.1,1,0.4
						c0.2,0.3,0.3,0.6,0.3,1v2.9c0,0.1,0,0.3,0.1,0.4c0.1,0.1,0.2,0.2,0.4,0.2c0.2,0,0.3-0.1,0.4-0.2c0.1-0.1,0.1-0.2,0.1-0.4v-2.9
						C208.8,41.2,208.1,40.4,206.9,40.4z M219.1,38.9c0-0.1-0.1-0.2-0.2-0.3c-0.1-0.1-0.2-0.1-0.3-0.1c-0.1,0-0.2,0-0.3,0.1
						c-0.1,0.1-0.2,0.2-0.2,0.3l-2.7,6.7c0,0.1,0,0.1,0,0.2c0,0.1,0,0.3,0.1,0.3c0.1,0.1,0.2,0.1,0.4,0.1c0.1,0,0.2,0,0.3-0.1
						s0.1-0.1,0.2-0.3l0.7-1.6h3.3l0.7,1.5c0.1,0.1,0.1,0.2,0.2,0.3c0.1,0.1,0.2,0.1,0.3,0.1s0.2,0,0.3-0.1c0.1-0.1,0.1-0.2,0.1-0.4
						c0-0.1,0-0.1,0-0.2L219.1,38.9z M217.2,43.3l1.3-3l1.3,3H217.2z M228.5,38.2c-0.2,0-0.3,0.1-0.4,0.2c-0.1,0.1-0.1,0.2-0.1,0.4
						v2.5c-0.2-0.3-0.5-0.5-0.8-0.6c-0.3-0.2-0.7-0.2-1.1-0.2c-0.5,0-0.9,0.1-1.3,0.4c-0.4,0.3-0.7,0.6-1,1.1
						c-0.2,0.5-0.3,1-0.3,1.5s0.1,1.1,0.4,1.5c0.2,0.5,0.6,0.8,1,1.1s0.9,0.4,1.4,0.4c0.4,0,0.7-0.1,1.1-0.3
						c0.3-0.2,0.6-0.4,0.8-0.7v0.1c0,0.2,0,0.3,0.1,0.4c0.1,0.1,0.2,0.2,0.4,0.2c0.2,0,0.3-0.1,0.4-0.2c0.1-0.1,0.1-0.2,0.1-0.4v-7
						c0-0.2,0-0.3-0.1-0.4C228.8,38.3,228.7,38.2,228.5,38.2z M227.9,44.3c-0.2,0.3-0.4,0.6-0.6,0.7c-0.3,0.2-0.6,0.3-0.9,0.3
						s-0.7-0.1-0.9-0.3c-0.3-0.2-0.5-0.4-0.6-0.7c-0.2-0.3-0.2-0.7-0.2-1.1c0-0.4,0.1-0.7,0.2-1.1c0.2-0.3,0.4-0.6,0.6-0.7
						c0.3-0.2,0.6-0.3,0.9-0.3c0.3,0,0.7,0.1,0.9,0.3c0.3,0.2,0.5,0.4,0.6,0.7c0.2,0.3,0.2,0.7,0.2,1.1
						C228.1,43.7,228.1,44.1,227.9,44.3z M236.2,40.5c-0.2,0-0.4,0.1-0.5,0.3l-1.6,3.8l-1.6-3.8c-0.1-0.1-0.1-0.2-0.2-0.3
						s-0.2-0.1-0.3-0.1c-0.2,0-0.3,0-0.4,0.1c-0.1,0.1-0.1,0.2-0.1,0.3s0,0.2,0.1,0.3l2,4.6c0.1,0.1,0.1,0.2,0.2,0.3
						c0.1,0.1,0.2,0.1,0.3,0.1c0.1,0,0.2,0,0.3-0.1c0.1-0.1,0.1-0.1,0.2-0.2l2-4.6c0.1-0.1,0.1-0.2,0.1-0.3s0-0.2-0.1-0.3
						C236.5,40.5,236.3,40.5,236.2,40.5z M239.5,38.6c-0.2,0-0.4,0-0.5,0.1c-0.1,0.1-0.1,0.2-0.1,0.4v0.2c0,0.2,0,0.3,0.1,0.4
						c0.1,0.1,0.2,0.1,0.5,0.1c0.2,0,0.4,0,0.5-0.1s0.1-0.2,0.1-0.4v-0.2c0-0.2,0-0.3-0.1-0.4C239.8,38.6,239.7,38.6,239.5,38.6z
						 M239.5,40.5c-0.1,0-0.3,0.1-0.4,0.2c-0.1,0.1-0.1,0.2-0.1,0.4v4.5c0,0.1,0,0.3,0.1,0.4c0.1,0.1,0.2,0.2,0.4,0.2
						c0.2,0,0.3-0.1,0.4-0.2c0.1-0.1,0.1-0.2,0.1-0.4V41c0-0.1,0-0.3-0.1-0.4C239.7,40.5,239.6,40.5,239.5,40.5z M245.8,43.2
						c-0.3-0.1-0.6-0.2-1-0.3c-0.5-0.1-0.8-0.2-1-0.4c-0.2-0.1-0.3-0.3-0.3-0.6s0.1-0.5,0.3-0.6c0.2-0.1,0.4-0.2,0.7-0.2
						s0.5,0,0.7,0.1c0.2,0.1,0.4,0.2,0.6,0.4c0.1,0.1,0.2,0.1,0.3,0.1s0.2,0,0.3-0.1c0.1-0.1,0.2-0.2,0.2-0.3s0-0.2-0.1-0.3
						c-0.2-0.3-0.5-0.5-0.9-0.6s-0.7-0.2-1.1-0.2c-0.4,0-0.7,0.1-1,0.2c-0.3,0.1-0.6,0.3-0.8,0.6c-0.2,0.3-0.3,0.5-0.3,0.9
						s0.1,0.7,0.3,0.9c0.2,0.2,0.4,0.4,0.7,0.5s0.6,0.2,1,0.4c0.4,0.1,0.7,0.2,1,0.4c0.2,0.1,0.3,0.3,0.3,0.6s-0.1,0.5-0.3,0.6
						c-0.2,0.1-0.5,0.2-0.7,0.2c-0.4,0-0.7-0.1-0.9-0.2c-0.3-0.1-0.5-0.3-0.7-0.6c-0.1-0.1-0.2-0.2-0.4-0.2c-0.1,0-0.2,0-0.3,0.1
						c-0.2,0.1-0.2,0.2-0.2,0.4c0,0.1,0,0.2,0.1,0.3c0.3,0.4,0.6,0.6,1,0.8s0.8,0.2,1.3,0.2c0.4,0,0.7-0.1,1-0.2
						c0.3-0.1,0.6-0.3,0.8-0.6c0.2-0.3,0.3-0.6,0.3-0.9c0-0.4-0.1-0.7-0.3-0.9C246.2,43.5,246,43.3,245.8,43.2z M253.1,40.8
						c-0.4-0.3-0.9-0.4-1.4-0.4c-0.5,0-1,0.1-1.4,0.4c-0.4,0.3-0.8,0.6-1.1,1.1c-0.3,0.5-0.4,1-0.4,1.5s0.1,1.1,0.4,1.5
						c0.3,0.5,0.6,0.8,1.1,1.1c0.4,0.3,0.9,0.4,1.4,0.4c0.5,0,1-0.1,1.4-0.4c0.4-0.3,0.8-0.6,1.1-1.1c0.3-0.5,0.4-1,0.4-1.5
						s-0.1-1.1-0.4-1.5S253.5,41,253.1,40.8z M253.2,44.3c-0.2,0.3-0.4,0.6-0.7,0.7c-0.3,0.2-0.6,0.3-0.9,0.3
						c-0.3,0-0.7-0.1-0.9-0.3c-0.3-0.2-0.5-0.4-0.7-0.7c-0.2-0.3-0.2-0.7-0.2-1.1c0-0.4,0.1-0.8,0.2-1.1c0.2-0.3,0.4-0.6,0.7-0.7
						c0.3-0.2,0.6-0.3,0.9-0.3c0.3,0,0.7,0.1,0.9,0.3c0.3,0.2,0.5,0.4,0.7,0.7c0.2,0.3,0.2,0.7,0.2,1.1
						C253.5,43.7,253.4,44.1,253.2,44.3z M260.2,40.5c-0.1-0.1-0.3-0.2-0.5-0.2c-0.4,0-0.8,0.1-1.1,0.4c-0.3,0.2-0.6,0.5-0.7,0.9V41
						c0-0.1,0-0.3-0.1-0.4c-0.1-0.1-0.2-0.2-0.4-0.2c-0.1,0-0.3,0.1-0.4,0.2c-0.1,0.1-0.1,0.2-0.1,0.4v4.6c0,0.2,0,0.3,0.1,0.4
						c0.1,0.1,0.2,0.2,0.4,0.2c0.2,0,0.3-0.1,0.4-0.2c0.1-0.1,0.1-0.2,0.1-0.4V43c0-0.3,0.1-0.7,0.2-0.9c0.1-0.3,0.3-0.5,0.5-0.7
						s0.4-0.2,0.7-0.2c0.1,0,0.2,0,0.4,0.1c0.1,0,0.2,0.1,0.3,0.1c0.1,0,0.2,0,0.3-0.1c0.1-0.1,0.1-0.2,0.1-0.4
						C260.4,40.8,260.3,40.6,260.2,40.5z"/>
				</g>
			</g>
		</g>
		<g>
			<path class="st1" d="M115.6,45.9h-1c-0.1-0.2-0.2-0.4-0.2-0.7c-0.7,0.6-1.4,0.8-2,0.8c-0.6,0-1.1-0.2-1.4-0.5
				c-0.3-0.3-0.5-0.7-0.5-1.2s0.2-0.9,0.5-1.2c0.3-0.3,0.9-0.5,1.7-0.6l0.9-0.1c0.3-0.1,0.6-0.1,0.8-0.2c0-0.3,0-0.5,0-0.6
				s-0.1-0.2-0.2-0.4c-0.1-0.1-0.2-0.2-0.4-0.3c-0.2-0.1-0.5-0.1-0.8-0.1c-0.4,0-0.7,0.1-1,0.2c-0.3,0.1-0.4,0.4-0.5,0.9l-0.9-0.1
				c0.1-0.6,0.4-1,0.8-1.3s1-0.4,1.7-0.4c0.7,0,1.2,0.1,1.4,0.3c0.3,0.2,0.5,0.4,0.6,0.7c0.1,0.3,0.1,0.7,0.1,1.1v1.3
				c0,0.8,0,1.3,0,1.5C115.3,45.4,115.4,45.7,115.6,45.9z M114.3,43.5v-0.4c-0.5,0.2-1.1,0.3-1.8,0.4c-0.7,0.1-1.1,0.4-1.1,0.9
				c0,0.3,0.1,0.5,0.3,0.6c0.2,0.2,0.5,0.3,0.9,0.3c0.5,0,0.9-0.1,1.3-0.4C114.1,44.6,114.3,44.2,114.3,43.5z"/>
		</g>
		<g>
			<path class="st1" d="M138.1,45.9h-1c-0.1-0.2-0.2-0.4-0.2-0.7c-0.7,0.6-1.4,0.8-2,0.8c-0.6,0-1.1-0.2-1.4-0.5s-0.5-0.7-0.5-1.2
				s0.2-0.9,0.5-1.2c0.3-0.3,0.9-0.5,1.7-0.6l0.9-0.1c0.3-0.1,0.6-0.1,0.8-0.2c0-0.3,0-0.5,0-0.6s-0.1-0.2-0.2-0.4
				c-0.1-0.1-0.2-0.2-0.4-0.3c-0.2-0.1-0.5-0.1-0.8-0.1c-0.4,0-0.7,0.1-1,0.2c-0.3,0.1-0.4,0.4-0.5,0.9l-0.9-0.1
				c0.1-0.6,0.4-1,0.8-1.3c0.4-0.3,1-0.4,1.7-0.4c0.7,0,1.2,0.1,1.4,0.3c0.3,0.2,0.5,0.4,0.6,0.7s0.1,0.7,0.1,1.1v1.3
				c0,0.8,0,1.3,0,1.5C137.9,45.4,137.9,45.7,138.1,45.9z M136.8,43.5v-0.4c-0.5,0.2-1.1,0.3-1.8,0.4c-0.7,0.1-1.1,0.4-1.1,0.9
				c0,0.3,0.1,0.5,0.3,0.6c0.2,0.2,0.5,0.3,0.9,0.3c0.5,0,0.9-0.1,1.3-0.4C136.6,44.6,136.8,44.2,136.8,43.5z"/>
		</g>
		<g>
			<path class="st1" d="M173.7,45.9h-1c-0.1-0.2-0.2-0.4-0.2-0.7c-0.7,0.6-1.4,0.8-2,0.8c-0.6,0-1.1-0.2-1.4-0.5
				c-0.3-0.3-0.5-0.7-0.5-1.2s0.2-0.9,0.5-1.2c0.3-0.3,0.9-0.5,1.7-0.6l0.9-0.1c0.3-0.1,0.6-0.1,0.8-0.2c0-0.3,0-0.5,0-0.6
				s-0.1-0.2-0.2-0.4c-0.1-0.1-0.2-0.2-0.4-0.3c-0.2-0.1-0.5-0.1-0.8-0.1c-0.4,0-0.7,0.1-1,0.2s-0.4,0.4-0.5,0.9l-0.9-0.1
				c0.1-0.6,0.4-1,0.8-1.3c0.4-0.3,1-0.4,1.7-0.4c0.7,0,1.2,0.1,1.4,0.3s0.5,0.4,0.6,0.7c0.1,0.3,0.1,0.7,0.1,1.1v1.3
				c0,0.8,0,1.3,0,1.5C173.4,45.4,173.5,45.7,173.7,45.9z M172.5,43.5v-0.4c-0.5,0.2-1.1,0.3-1.8,0.4c-0.7,0.1-1.1,0.4-1.1,0.9
				c0,0.3,0.1,0.5,0.3,0.6c0.2,0.2,0.5,0.3,0.9,0.3c0.5,0,0.9-0.1,1.3-0.4C172.3,44.6,172.5,44.2,172.5,43.5z"/>
		</g>
		<g>
			<path class="st1" d="M201.4,45.9h-1c-0.1-0.2-0.2-0.4-0.2-0.7c-0.7,0.6-1.4,0.8-2,0.8c-0.6,0-1.1-0.2-1.4-0.5
				c-0.3-0.3-0.5-0.7-0.5-1.2s0.2-0.9,0.5-1.2s0.9-0.5,1.7-0.6l0.9-0.1c0.3-0.1,0.6-0.1,0.8-0.2c0-0.3,0-0.5,0-0.6s-0.1-0.2-0.2-0.4
				c-0.1-0.1-0.2-0.2-0.4-0.3c-0.2-0.1-0.5-0.1-0.8-0.1c-0.4,0-0.7,0.1-1,0.2c-0.3,0.1-0.4,0.4-0.5,0.9l-0.9-0.1
				c0.1-0.6,0.4-1,0.8-1.3c0.4-0.3,1-0.4,1.7-0.4c0.7,0,1.2,0.1,1.4,0.3c0.3,0.2,0.5,0.4,0.6,0.7s0.1,0.7,0.1,1.1v1.3
				c0,0.8,0,1.3,0,1.5C201.1,45.4,201.2,45.7,201.4,45.9z M200.1,43.5v-0.4c-0.5,0.2-1.1,0.3-1.8,0.4c-0.7,0.1-1.1,0.4-1.1,0.9
				c0,0.3,0.1,0.5,0.3,0.6c0.2,0.2,0.5,0.3,0.9,0.3c0.5,0,0.9-0.1,1.3-0.4C199.9,44.6,200.1,44.2,200.1,43.5z"/>
		</g>
	</g>
	<g>
		<path class="st2" d="M73.1,21c0.3,0.4,0.5,0.8,0.5,1.3V31c0,0.7-0.3,1.2-0.9,1.6c-1.2,0.8-2.5,1.4-3.9,1.8
			C67.4,34.8,66,35,64.5,35c-2.6,0-4.9-0.6-7.1-1.8c-2.1-1.2-3.8-2.9-5.1-5c-1.2-2.1-1.8-4.4-1.8-7c0-2.5,0.6-4.9,1.8-7
			c1.2-2.1,2.9-3.8,5.1-5c2.1-1.2,4.5-1.8,7.1-1.8c1.3,0,2.5,0.1,3.7,0.4C69.4,8,70.4,8.4,71.4,9c0.3,0.2,0.5,0.4,0.7,0.7
			c0.2,0.3,0.2,0.5,0.2,0.8c0,0.5-0.2,1-0.5,1.3c-0.3,0.4-0.8,0.6-1.3,0.6c-0.4,0-0.7-0.1-1-0.3c-1.7-0.8-3.4-1.2-5.1-1.2
			c-1.8,0-3.5,0.4-5.1,1.3c-1.5,0.9-2.7,2.1-3.6,3.7c-0.9,1.6-1.3,3.3-1.3,5.2c0,1.9,0.4,3.6,1.3,5.1c0.9,1.6,2.1,2.8,3.6,3.7
			c1.5,0.9,3.2,1.4,5.1,1.4c0.9,0,1.8-0.1,2.8-0.3c1-0.2,1.8-0.5,2.5-0.8v-6.1H65c-0.5,0-0.9-0.2-1.3-0.5c-0.4-0.3-0.5-0.8-0.5-1.3
			c0-0.5,0.2-1,0.5-1.3c0.4-0.3,0.8-0.5,1.3-0.5h6.8C72.3,20.5,72.8,20.7,73.1,21z"/>
		<path class="st2" d="M96.1,29.9c-0.9,1.6-2.1,2.8-3.7,3.7c-1.6,0.9-3.3,1.3-5.1,1.3c-1.9,0-3.6-0.4-5.1-1.3
			c-1.6-0.9-2.8-2.1-3.7-3.7c-0.9-1.6-1.3-3.4-1.3-5.4s0.4-3.8,1.3-5.4c0.9-1.6,2.1-2.9,3.7-3.8c1.6-0.9,3.3-1.3,5.1-1.3
			c1.9,0,3.6,0.4,5.1,1.3c1.6,0.9,2.8,2.2,3.7,3.8c0.9,1.6,1.3,3.4,1.3,5.4S97,28.4,96.1,29.9z M92.9,20.8c-0.6-1.1-1.4-1.9-2.3-2.5
			c-1-0.6-2.1-0.9-3.3-0.9c-1.2,0-2.3,0.3-3.3,0.9c-1,0.6-1.8,1.5-2.3,2.5c-0.6,1.1-0.9,2.3-0.9,3.7c0,1.4,0.3,2.6,0.9,3.7
			c0.6,1.1,1.4,1.9,2.3,2.5c1,0.6,2.1,0.9,3.3,0.9c1.2,0,2.3-0.3,3.3-0.9c1-0.6,1.8-1.4,2.3-2.5c0.6-1.1,0.9-2.3,0.9-3.7
			C93.8,23.2,93.5,21.9,92.9,20.8z"/>
		<path class="st2" d="M105.3,34.2c-1.4-0.5-2.8-1.4-4.1-2.6c-0.5-0.5-0.8-1-0.8-1.6c0-0.5,0.2-0.9,0.5-1.3c0.4-0.4,0.8-0.6,1.3-0.6
			c0.4,0,0.8,0.1,1.1,0.4c1,0.9,2.1,1.6,3.2,2.1c1.1,0.4,2.3,0.7,3.7,0.7c1.6,0,3-0.4,4.1-1.1c1.1-0.7,1.7-1.7,1.7-2.8
			c0-1.3-0.6-2.4-1.7-3.1c-1.1-0.7-2.8-1.3-5-1.8c-2.6-0.5-4.7-1.4-6.1-2.7c-1.4-1.2-2.1-2.9-2.1-5.1c0-1.5,0.4-2.8,1.2-4
			c0.8-1.1,1.9-2,3.3-2.6c1.4-0.6,3-0.9,4.8-0.9c1.6,0,3.1,0.3,4.5,0.8c1.4,0.5,2.6,1.2,3.4,2c0.6,0.5,0.9,1.1,0.9,1.7
			c0,0.5-0.2,0.9-0.5,1.2c-0.3,0.4-0.8,0.5-1.3,0.5c-0.4,0-0.7-0.1-0.9-0.3c-0.7-0.7-1.6-1.2-2.8-1.7c-1.2-0.5-2.3-0.7-3.4-0.7
			c-1.7,0-3.1,0.4-4.1,1.1c-1,0.7-1.5,1.6-1.5,2.8c0,1.3,0.5,2.2,1.5,2.9c1,0.7,2.5,1.2,4.5,1.7c2,0.4,3.6,1,4.9,1.5
			c1.3,0.6,2.3,1.4,2.9,2.5c0.7,1.1,1,2.4,1,4.1c0,1.5-0.4,2.8-1.3,4c-0.8,1.2-2,2.1-3.4,2.7c-1.4,0.6-3,1-4.7,1
			C108.4,35,106.7,34.8,105.3,34.2z"/>
		<path class="st2" d="M141.7,14.7c0.3,0.3,0.5,0.8,0.5,1.4v16.7c0,0.5-0.2,0.9-0.5,1.3c-0.3,0.4-0.8,0.5-1.3,0.5
			c-0.5,0-1-0.2-1.3-0.5c-0.3-0.3-0.5-0.8-0.5-1.3v-1c-0.7,0.9-1.6,1.7-2.7,2.3c-1.2,0.6-2.4,0.9-3.7,0.9c-1.7,0-3.3-0.4-4.8-1.3
			c-1.4-0.9-2.5-2.1-3.3-3.8c-0.8-1.6-1.2-3.4-1.2-5.4s0.4-3.8,1.2-5.4c0.8-1.6,1.9-2.9,3.3-3.8c1.4-0.9,3-1.3,4.7-1.3
			c1.4,0,2.6,0.3,3.8,0.8c1.2,0.6,2.1,1.3,2.8,2.2v-0.9c0-0.5,0.2-1,0.5-1.3c0.3-0.4,0.8-0.5,1.3-0.5
			C140.9,14.2,141.4,14.4,141.7,14.7z M135.8,30.7c0.9-0.6,1.7-1.5,2.2-2.5c0.5-1.1,0.8-2.3,0.8-3.7c0-1.3-0.3-2.5-0.8-3.6
			c-0.5-1.1-1.3-1.9-2.2-2.6c-0.9-0.6-2-0.9-3.2-0.9c-1.2,0-2.3,0.3-3.2,0.9c-0.9,0.6-1.7,1.5-2.2,2.5c-0.5,1.1-0.8,2.3-0.8,3.7
			s0.3,2.6,0.8,3.7c0.5,1.1,1.3,1.9,2.2,2.5c0.9,0.6,2,0.9,3.2,0.9C133.7,31.6,134.8,31.3,135.8,30.7z"/>
		<path class="st2" d="M164.5,22.5v10.3c0,0.5-0.2,0.9-0.5,1.3c-0.3,0.4-0.8,0.5-1.3,0.5c-0.5,0-0.9-0.2-1.3-0.5
			c-0.3-0.4-0.5-0.8-0.5-1.3V22.5c0-3.3-1.4-5-4.2-5c-1.5,0-2.8,0.5-3.8,1.4c-1,1-1.5,2.1-1.5,3.6v10.3c0,0.5-0.2,0.9-0.5,1.3
			c-0.3,0.4-0.8,0.5-1.3,0.5c-0.5,0-1-0.2-1.3-0.5s-0.5-0.8-0.5-1.3V8c0-0.5,0.2-0.9,0.5-1.3c0.3-0.4,0.8-0.5,1.3-0.5
			c0.5,0,1,0.2,1.3,0.5c0.3,0.4,0.5,0.8,0.5,1.3v9.7c0.6-1,1.5-1.9,2.7-2.6c1.2-0.7,2.4-1.1,3.7-1.1
			C162.2,14.1,164.5,16.9,164.5,22.5z"/>
		<path class="st2" d="M170,11.3c-0.3-0.3-0.5-0.7-0.5-1.3V9.4c0-0.6,0.2-1.1,0.5-1.3c0.3-0.3,0.9-0.4,1.6-0.4
			c0.7,0,1.2,0.1,1.6,0.4c0.3,0.3,0.5,0.7,0.5,1.3V10c0,0.6-0.2,1.1-0.5,1.3c-0.3,0.3-0.9,0.4-1.6,0.4
			C170.8,11.7,170.3,11.6,170,11.3z M172.9,34.1c-0.3,0.4-0.8,0.5-1.3,0.5c-0.5,0-0.9-0.2-1.3-0.5c-0.3-0.4-0.5-0.8-0.5-1.3V16.1
			c0-0.5,0.2-0.9,0.5-1.3c0.3-0.4,0.8-0.5,1.3-0.5c0.5,0,1,0.2,1.3,0.5c0.3,0.4,0.5,0.8,0.5,1.3v16.7
			C173.4,33.3,173.2,33.7,172.9,34.1z"/>
		<path class="st2" d="M178.6,34.1c-0.3-0.3-0.5-0.8-0.5-1.5v-0.7c0-0.6,0.2-1.1,0.5-1.4c0.3-0.3,0.8-0.5,1.4-0.5h0.4
			c0.6,0,1.1,0.2,1.4,0.5c0.3,0.3,0.5,0.8,0.5,1.4v0.7c0,1.3-0.6,2-1.9,2H180C179.4,34.6,178.9,34.4,178.6,34.1z"/>
		<path class="st2" d="M201,15c1.3,0.6,2,1.5,2,2.5c0,0.4-0.1,0.8-0.4,1.2c-0.3,0.3-0.6,0.5-1.1,0.5c-0.3,0-0.6-0.1-0.8-0.2
			c-0.2-0.1-0.5-0.3-0.8-0.5c-0.2-0.2-0.4-0.3-0.7-0.5c-0.3-0.2-0.7-0.3-1.3-0.4c-0.6-0.1-1.1-0.2-1.5-0.2c-1.3,0-2.5,0.3-3.5,0.9
			c-1,0.6-1.8,1.5-2.4,2.6c-0.6,1.1-0.8,2.3-0.8,3.6c0,1.4,0.3,2.6,0.8,3.7c0.6,1.1,1.3,1.9,2.3,2.5c1,0.6,2.1,0.9,3.4,0.9
			c1.3,0,2.4-0.2,3.2-0.6c0.2-0.1,0.4-0.3,0.7-0.5c0.3-0.2,0.5-0.4,0.7-0.5c0.2-0.1,0.4-0.2,0.7-0.2c0.5,0,0.9,0.2,1.2,0.5
			c0.3,0.3,0.4,0.7,0.4,1.3c0,0.5-0.3,1.1-1,1.6c-0.7,0.5-1.6,1-2.7,1.3c-1.1,0.3-2.4,0.5-3.7,0.5c-1.9,0-3.7-0.5-5.2-1.4
			c-1.5-0.9-2.6-2.2-3.4-3.8c-0.8-1.6-1.2-3.4-1.2-5.4s0.4-3.8,1.3-5.4c0.8-1.6,2-2.9,3.5-3.8c1.5-0.9,3.2-1.4,5.2-1.4
			C198,14,199.7,14.3,201,15z"/>
		<path class="st2" d="M224.7,29.9c-0.9,1.6-2.1,2.8-3.7,3.7c-1.6,0.9-3.3,1.3-5.1,1.3s-3.6-0.4-5.1-1.3c-1.6-0.9-2.8-2.1-3.7-3.7
			c-0.9-1.6-1.3-3.4-1.3-5.4s0.4-3.8,1.3-5.4c0.9-1.6,2.1-2.9,3.7-3.8c1.6-0.9,3.3-1.3,5.1-1.3s3.6,0.4,5.1,1.3
			c1.6,0.9,2.8,2.2,3.7,3.8c0.9,1.6,1.3,3.4,1.3,5.4S225.6,28.4,224.7,29.9z M221.5,20.8c-0.6-1.1-1.4-1.9-2.3-2.5
			c-1-0.6-2.1-0.9-3.3-0.9c-1.2,0-2.3,0.3-3.3,0.9c-1,0.6-1.8,1.5-2.3,2.5c-0.6,1.1-0.9,2.3-0.9,3.7c0,1.4,0.3,2.6,0.9,3.7
			c0.6,1.1,1.4,1.9,2.3,2.5c1,0.6,2.1,0.9,3.3,0.9c1.2,0,2.3-0.3,3.3-0.9c1-0.6,1.8-1.4,2.3-2.5c0.6-1.1,0.9-2.3,0.9-3.7
			C222.4,23.2,222.1,21.9,221.5,20.8z"/>
		<path class="st2" d="M260.2,22.5v10.3c0,0.5-0.2,1-0.5,1.3c-0.3,0.3-0.8,0.5-1.3,0.5s-1-0.2-1.3-0.5c-0.3-0.4-0.5-0.8-0.5-1.3
			V22.6c0-3.4-1.4-5-4.2-5c-1,0-1.9,0.2-2.7,0.7c-0.8,0.4-1.4,1.1-1.9,1.8c-0.4,0.8-0.7,1.6-0.7,2.5v10.2c0,0.5-0.2,0.9-0.5,1.3
			c-0.3,0.4-0.8,0.5-1.3,0.5c-0.5,0-1-0.2-1.3-0.5c-0.3-0.3-0.5-0.8-0.5-1.3V22.5c0-1.5-0.3-2.7-1-3.6c-0.6-0.9-1.7-1.4-3.2-1.4
			c-1.5,0-2.8,0.5-3.8,1.4c-1,1-1.5,2.1-1.5,3.6v10.3c0,0.5-0.2,0.9-0.5,1.3c-0.3,0.4-0.8,0.5-1.3,0.5s-1-0.2-1.3-0.5
			c-0.3-0.3-0.5-0.8-0.5-1.3V16.3c0-0.5,0.2-0.9,0.5-1.3c0.3-0.4,0.8-0.5,1.3-0.5c0.5,0,1,0.2,1.3,0.5c0.3,0.4,0.5,0.8,0.5,1.3v1.3
			c0.7-1,1.6-1.8,2.7-2.5s2.3-1,3.6-1c3.2,0,5.2,1.4,6.2,4.2c0.6-1.1,1.5-2.1,2.8-2.9c1.3-0.9,2.7-1.3,4.2-1.3
			C257.9,14.1,260.2,16.9,260.2,22.5z"/>
	</g>
	<g>
		<path class="st3" d="M50.9,2L46,6.1l0,0L37,13.4L21.3,24.9l-6.1-5.2l-4.3,3.9l10.5,10.1L45,11.5l7.8-7L50.9,2z M39.5,18.1
			c0.7,1.9,0.7,3.4,0.7,5.5c0,9.7-7.8,17.5-17.4,17.5c-9.6,0-17.4-7.9-17.4-17.5C5.3,13.9,13.1,6,22.7,6c5.3,0,10,2.4,13.2,6.1
			l3-2.2c-0.4-0.5-0.8-1-1.3-1.4c-1.9-2-4.2-3.5-6.7-4.6c-2.6-1.1-5.4-1.7-8.2-1.7s-5.6,0.6-8.2,1.7C12,5,9.7,6.6,7.8,8.5
			c-1.9,2-3.5,4.2-4.5,6.8c-1.1,2.6-1.7,5.4-1.7,8.3c0,2.9,0.6,5.7,1.7,8.3c1.1,2.5,2.6,4.8,4.5,6.8c1.9,2,4.2,3.5,6.7,4.6
			c2.6,1.1,5.4,1.7,8.2,1.7s5.6-0.6,8.2-1.7c2.5-1.1,4.8-2.6,6.7-4.6c1.9-2,3.5-4.2,4.5-6.8c1.1-2.6,1.7-5.4,1.7-8.3
			c0-2.9-1.1-8.2-1.1-8.2L39.5,18.1z"/>
	</g>
</g>
</svg>
