<?xml version="1.0" encoding="utf-8"?>
<!-- Generator: Adobe Illustrator 21.1.0, SVG Export Plug-In . SVG Version: 6.00 Build 0)  -->
<svg version="1.1" xmlns="http://www.w3.org/2000/svg" xmlns:xlink="http://www.w3.org/1999/xlink" x="0px" y="0px" width="50px"
	 height="50px" viewBox="0 0 50 50" style="enable-background:new 0 0 50 50;" xml:space="preserve">
<style type="text/css">
	.st0{display:none;}
	.st1{display:inline;}
	.st2{fill:#2D3E4F;}
	.st3{fill:#15549A;}
	.st4{display:inline;fill:#15549A;}
	.st5{display:inline;fill:#2D3E4F;}
	.st6{fill:#352F2D;}
	.st7{fill:#88BFB7;}
	.st8{fill:#CCFEF8;}
	.st9{fill:#41CFC1;}
	.st10{fill:#776B69;}
	.st11{fill:#42AA92;}
	.st12{fill:#E04327;}
	.st13{fill:#982023;}
</style>
<g id="Layer_1" class="st0">
	<g id="Layer_1_1_">
		<g id="_x32_7" class="st1">
			<g>
				<path class="st2" d="M37.3,21c-0.2-0.2-0.4-0.2-0.5-0.2l0,0c0,0-0.1,0-0.2,0c-0.3,0-0.5,0-0.8,0H35c-0.4,0-0.9,0-1.3,0
					c-0.2,0-0.5,0.1-0.6,0.3c-0.1,0.2,0,0.5,0,0.6c0.1,0.1,0.1,0.2,0.2,0.3l0.1,0.1c0.1,0.2,0.3,0.3,0.4,0.5L25.6,29
					c-0.3-0.1-0.6-0.1-0.9,0l-4.4-3.6c0-0.7-0.4-1.3-1-1.6c-0.8-0.4-1.8-0.1-2.3,0.6l-0.5,0.1h-0.2L13.5,25
					c-0.3,0.1-0.5,0.2-0.7,0.4c-0.2,0.2-0.2,0.5-0.2,0.8c0,0.1,0.1,0.2,0.1,0.3c0.1,0.1,0.1,0.2,0.2,0.3c0,0.1,0.1,0.2,0.1,0.2
					s0.1,0,0.1,0.1c0.1,0.1,0.3,0.1,0.5,0.1l3.4-0.5c0.4,0.5,1.2,0.7,1.9,0.5l4.4,3.6c0,0.7,0.4,1.3,1,1.6c0,0,0.1,0,0.1,0.1
					c0.2,0.1,0.4,0.1,0.6,0.1c0.6,0,1.2-0.3,1.5-0.9c0.2-0.3,0.3-0.7,0.3-1l8.3-6.6c0.2,0.3,0.4,0.5,0.6,0.8
					c0.1,0.1,0.3,0.3,0.6,0.3h0.1c0.3-0.1,0.5-0.4,0.5-0.6l0.2-1.3c0.1-0.5,0.1-1,0.2-1.5c0-0.1,0-0.1,0-0.2
					C37.4,21.5,37.5,21.2,37.3,21z M19.4,26c-0.2,0.4-0.5,0.6-0.9,0.6l0,0c-0.2,0-0.3,0-0.5-0.1c0,0-0.1,0-0.1-0.1h-0.1
					c-0.4-0.3-0.5-0.9-0.3-1.4c0.3-0.5,0.9-0.7,1.4-0.5H19c0.3,0.1,0.4,0.3,0.5,0.6C19.5,25.4,19.5,25.7,19.4,26z M26,31.3
					c-0.1,0.3-0.4,0.5-0.7,0.5c-0.1,0-0.2,0-0.3,0c-0.1,0-0.2,0-0.3-0.1h-0.1l-0.1-0.1c-0.1-0.1-0.3-0.2-0.4-0.3
					c-0.2-0.3-0.2-0.8,0-1.1c0.3-0.5,0.9-0.7,1.3-0.5C26.1,30.1,26.3,30.8,26,31.3z"/>
				<path class="st3" d="M35.4,34.6c0,1,0,7.5,0,8.5c0,0.6-0.2,0.8-0.8,0.8h-2.5c-0.5,0-0.7-0.2-0.7-0.7c0-2.2,0-9.7,0-11.9V29
					l3.6-2.9c0.1,0.1,0.2,0.1,0.3,0.2C35.4,29.1,35.4,31.8,35.4,34.6z"/>
				<path class="st3" d="M29.8,30.3v12.8c0,0.6-0.2,0.8-0.8,0.8c-0.8,0-1.6,0-2.4,0c-0.5,0-0.7-0.2-0.7-0.7V34
					c0.8-0.2,1.6-0.7,2-1.4c0.2-0.3,0.3-0.7,0.4-1L29.8,30.3z"/>
				<path class="st3" d="M24.2,34v9.2c0,0.5-0.2,0.7-0.7,0.7c-0.8,0-1.6,0-2.5,0c-0.5,0-0.7-0.2-0.7-0.7c0-2.4,0-10.1,0-12.5
					c0-0.2,0-0.3,0.1-0.4l1.6,1.3c0.2,0.9,0.8,1.7,1.8,2.2c0.1,0,0.2,0.1,0.3,0.1C24.1,33.9,24.1,33.9,24.2,34z"/>
				<path class="st3" d="M18.6,43.2c0,0.4-0.2,0.6-0.6,0.7c-0.9,0-1.8,0-2.6,0c-0.4,0-0.6-0.2-0.6-0.7c0-0.7,0-5.4,0-6.2
					c0-0.7,0-7.3,0-8.1c0-0.2,0-0.4,0.1-0.5s0.3-0.2,0.5-0.2c0.3,0,0.6,0,0.8,0h0.5c0.5,0.3,1.1,0.5,1.8,0.5l0.2,0.1c0,0,0,0,0,0.1
					C18.6,30.4,18.6,41.7,18.6,43.2z"/>
			</g>
			<path class="st3" d="M26.3,15.6h1.9l0.8-1h-7.2l-0.8,1h1.3c1.3,0,2.4,0.1,2.9,1.1h-3.4l-0.8,1h4.3l0,0c0,0.7-0.7,1.8-2.8,1.8
				h-1.1v1l4.3,4.8h1.8l-4.4-5c1.8-0.1,3.5-1,3.7-2.6h1.4l0.8-1h-2.1C26.7,16.3,26.6,15.9,26.3,15.6z"/>
		</g>
		<g id="_x31_5" class="st1">
			<path class="st2" d="M21.6,45.1H8.3c0-0.1,0-0.2,0-0.3V30l0,0v-6.7c0-0.1,0-0.2,0-0.3c5.2-4.5,10.3-9,15.5-13.5l0.5-0.4
				c0.6-0.4,1.1-0.3,1.7,0.3c3.5,3.1,7.1,6.2,10.6,9.3c2.7,2.3,5.4,4.7,8.1,7c1.8,1.6,4.3,0.7,4.7-1.5c0.2-1.2-0.3-2-1.2-2.8
				c-0.6-0.5-1.1-1-1.7-1.5l0,0l0,0c-2.6-2.3-5.2-4.5-7.8-6.8C35,9.8,31.1,6.4,27.2,2.9c-1.4-1.2-2.8-1.3-4-0.2
				c-2.7,2.4-5.4,4.8-8.1,7.1c-0.3,0.2-0.5,0.4-1,0.8V7.8c0-0.7-0.5-1.2-1.1-1.2H8.7c-0.6,0-1.1,0.6-1.1,1.3c0,2.8,0,5.2,0,7.6
				c0,0.5-0.3,1.2-0.7,1.6c-1.8,1.7-3.7,3.2-5.5,4.8c-1,0.9-1.3,2.4-0.6,3.5c0.6,1.1,2,1.6,3.2,1.2c0.3-0.1,0.6-0.2,0.8-0.4v18.7
				c0,0.1,0,0.2,0,0.3H3v3.5h28.8c-0.5-1.1-1-2.3-1.4-3.5h-8.8"/>
		</g>
	</g>
	<g id="Layer_2">
		<g id="_x32_0" class="st1">
			<g>
				<g>
					<path class="st3" d="M29,37.9v0.2H6.6c-0.8,0-1.4-0.6-1.4-1.4c0-0.8,0.6-1.4,1.4-1.4h18.6C26.3,36.3,27.6,37.2,29,37.9z"/>
					<path class="st3" d="M20.9,25c0,0.5,0,1,0.1,1.4H6.6c-0.8,0-1.4-0.6-1.4-1.4s0.6-1.4,1.4-1.4H21C20.9,24.1,20.9,24.5,20.9,25z"
						/>
					<path class="st3" d="M27.7,12.8c-1.2,0.7-2.3,1.7-3.2,2.7H6.6c-0.8,0-1.4-0.6-1.4-1.4c0-0.8,0.6-1.4,1.4-1.4h21L27.7,12.8z"/>
				</g>
			</g>
			<path class="st2" d="M38.2,10.7c0.7,0,1.4,0.1,2.1,0.2V6.4c0-2.9-2.4-5.3-5.3-5.3H5.6c-2.9,0-5.3,2.4-5.3,5.3v37.1
				c0,2.9,2.4,5.3,5.3,5.3H35c2.9,0,5.3-2.4,5.3-5.3v-4.4c-0.7,0.1-1.4,0.2-2.1,0.2c-0.2,0-0.4,0-0.6,0v4.2c0,1.4-1.2,2.6-2.6,2.6
				H5.6C4.1,46.2,3,45,3,43.6V6.4C3,5,4.1,3.9,5.6,3.9H35c1.4,0,2.6,1.2,2.6,2.6v4.2C37.8,10.7,38,10.7,38.2,10.7z"/>
		</g>
		<path class="st4" d="M47.1,14.9c-0.3,0.4-0.5,0.8-0.8,1.3c-0.7,1-1.4,2.1-2.1,3.1c-0.8,1.2-1.6,2.5-2.5,3.7
			c-0.7,1.1-1.5,2.2-2.2,3.3c-0.4,0.6-0.8,1.2-1.2,1.8c-0.5,0.7-1.6,1.3-2.5,0.8c-0.3-0.2-0.8-0.5-1-0.8L34.7,28
			c-0.1-0.1-0.2-0.3-0.3-0.4c-0.1-0.2-0.3-0.4-0.4-0.6c-0.2-0.2-0.3-0.5-0.5-0.7c-0.2-0.3-0.4-0.5-0.5-0.8c-0.2-0.3-0.4-0.5-0.6-0.8
			c-0.2-0.3-0.4-0.5-0.5-0.8c-0.2-0.2-0.3-0.5-0.5-0.7c-0.1-0.2-0.3-0.4-0.4-0.5s-0.2-0.3-0.3-0.4c0,0,0,0,0-0.1
			c-0.1-0.1-0.1-0.3-0.2-0.5c0-0.3,0.1-0.5,0.3-0.7c0.2-0.2,0.4-0.3,0.6-0.3c0,0,0.3-0.1,0.8,0.2l4.2,3.5c0.3-0.3,0.6-0.7,0.9-1
			c0.7-0.8,1.4-1.6,2.2-2.5c0.9-1,1.8-2,2.6-3c0.8-0.9,1.6-1.8,2.4-2.7c0.5-0.5,0.9-1.1,1.5-1.6c0.4-0.4,0.9-0.2,1.3,0.2
			C47.1,13.7,47.6,14.2,47.1,14.9z"/>
		<path class="st5" d="M46.6,18.3c-0.4,0.6-0.8,1.2-1.2,1.8L45,20.7c0.8,1.5,1.2,3.1,1.2,4.9c0,5.7-4.6,10.3-10.3,10.3
			s-10.3-4.6-10.3-10.3s4.6-10.3,10.3-10.3c1.9,0,3.6,0.5,5.2,1.4c0.6-0.6,1.1-1.3,1.7-1.9c-2-1.3-4.3-2-6.9-2
			c-7.1,0-12.8,5.8-12.8,12.8S28.9,38.4,36,38.4s12.8-5.8,12.8-12.8C48.8,22.9,48,20.4,46.6,18.3z"/>
	</g>
	<g id="Layer_4">
		<g id="_x31_4" class="st1">
			<path class="st3" d="M44.6,8.8H27c-0.2-0.5-0.6-1-1.2-1.2l-0.1-3.2c0-0.7-0.5-1.3-1.2-1.4c-0.7,0.1-1.2,0.7-1.2,1.4l-0.1,3.2
				c-0.5,0.3-0.9,0.7-1.2,1.2H4.4c-0.6,0-1.1,0.5-1.1,1.1S3.8,11,4.4,11H22c0.2,0.5,0.5,0.8,1,1.1l-1,25.4c-1.5,0.6-2.7,1.8-3.3,3.3
				c-0.3,0.7-0.4,1.4-0.4,2.2l0,0h12.6l0,0c0-0.7-0.1-1.4-0.4-2.1c-0.6-1.5-1.8-2.7-3.3-3.4l-1-25.4c0.4-0.3,0.7-0.7,1-1.1h17.7
				c0.6,0,1.1-0.5,1.1-1.1C45.8,9.3,45.3,8.8,44.6,8.8z M23.7,8.8c0.2-0.2,0.5-0.2,0.8-0.2s0.6,0.1,0.8,0.2c0.4,0.2,0.6,0.7,0.6,1.1
				c0,0.5-0.2,0.9-0.6,1.1c-0.2,0.2-0.5,0.2-0.8,0.2s-0.6-0.1-0.8-0.2c-0.4-0.2-0.6-0.7-0.6-1.1S23.4,9.1,23.7,8.8z"/>
			<path class="st2" d="M42.1,39.2c-4.2,0-7.6-3.4-7.6-7.6s3.4-7.6,7.6-7.6s7.6,3.4,7.6,7.6S46.3,39.2,42.1,39.2z M42.1,25.6
				c-3.3,0-6.1,2.7-6.1,6.1s2.7,6.1,6.1,6.1c3.3,0,6.1-2.7,6.1-6.1S45.4,25.6,42.1,25.6z"/>
			<path class="st2" d="M7.9,24.2c-4.2,0-7.5,3.4-7.5,7.5c0,0.4,0.3,0.7,0.7,0.7s0.7-0.3,0.7-0.7c0-3.4,2.8-6.1,6.1-6.1
				c3.4,0,6.1,2.8,6.1,6.1s-2.8,6.1-6.1,6.1c-1.8,0-3.4-0.8-4.6-2.1l0.3-0.2c0.2-0.1,0.3-0.3,0.2-0.5c0-0.2-0.2-0.4-0.4-0.5l-2-0.9
				c-0.2-0.1-0.5,0-0.7,0.2c-0.1,0.1-0.2,0.3-0.1,0.5l0.3,2.2c0,0.3,0.3,0.5,0.6,0.5c0.1,0,0.3,0,0.4-0.1l0.4-0.3
				c1.4,1.7,3.5,2.6,5.7,2.6c4.2,0,7.5-3.4,7.5-7.5S12,24.2,7.9,24.2z"/>
			<path class="st3" d="M12,30.4c-0.6,0.3-1.2,0.7-1.7,1.1C10,31.6,9.7,31.8,9.4,32l-0.1,0.1c-0.1,0.1-0.2,0.1-0.2,0.2
				c-0.1,0.5-0.5,0.9-1,1.1c-0.2,0-0.3,0.1-0.5,0.1s-0.4,0-0.6-0.1H6.9c-0.1,0-0.1-0.1-0.1-0.1l0,0c0,0-0.1,0-0.1-0.1
				c-0.2-0.2-0.4-0.4-0.5-0.7c0-0.1-0.1-0.2-0.1-0.4V32c0-0.3,0.1-0.5,0.2-0.7v-0.1c0.2-0.3,0.5-0.6,0.9-0.7s0.8-0.1,1.1,0.1
				c0,0,0,0,0.1,0c0.2,0,0.3-0.1,0.5-0.2c0.4-0.2,0.8-0.3,1.2-0.5l0.4-0.2c0.2-0.1,0.4-0.2,0.6-0.3c0.1-0.1,0.2-0.1,0.4-0.1
				c0.4-0.1,0.7,0,0.8,0.3C12.4,29.7,12.5,30.1,12,30.4z"/>
			<path class="st2" d="M2.1,24.2c0.1,0.1,0.2,0.1,0.3,0.1c0.2,0,0.4-0.1,0.5-0.3L8,15l4.8,8.9c0.1,0.2,0.3,0.3,0.5,0.3
				c0.1,0,0.2,0,0.3-0.1c0.3-0.2,0.4-0.5,0.2-0.8l-5.3-9.8c0,0,0,0,0-0.1c0,0,0,0,0-0.1l0,0l-0.1-0.1c0,0-0.1,0-0.1-0.1H8.2
				c-0.1,0-0.2,0-0.3,0c0,0,0,0-0.1,0l0,0c0,0,0,0-0.1,0c0,0,0,0-0.1,0l0,0l-0.1,0.1l0,0L1.9,23C1.7,23.6,1.8,24,2.1,24.2z"/>
			<path class="st2" d="M36.3,24.6c0.1,0.1,0.2,0.1,0.3,0.1c0.2,0,0.4-0.1,0.5-0.3l5.1-8.9l4.8,8.9c0.1,0.2,0.3,0.3,0.5,0.3
				c0.1,0,0.2,0,0.3-0.1c0.3-0.2,0.4-0.5,0.2-0.8L42.7,14c0,0,0,0,0-0.1c0,0,0,0,0-0.1l0,0l-0.1-0.1c0,0-0.1,0-0.1-0.1h-0.1
				c-0.1,0-0.2,0-0.3,0c0,0,0,0-0.1,0l0,0c0,0,0,0-0.1,0c0,0,0,0-0.1,0l0,0l-0.1,0.1l0,0l-5.6,9.8C35.9,24.1,36,24.4,36.3,24.6z"/>
			<polygon class="st3" points="34.1,44.7 24.5,44.7 14.9,44.7 14.1,46.9 24.5,46.9 34.9,46.9 			"/>
		</g>
		<path class="st4" d="M43.1,28h1.7l0.7-0.8h-6.2L38.6,28h1.1c1.1,0,2.1,0.1,2.5,0.9h-2.9l-0.7,0.8h3.7l0,0c0,0.6-0.6,1.6-2.4,1.6
			H39v0.8l3.7,4.1h1.6L40.4,32c1.6-0.1,3-0.8,3.2-2.3h1.2l0.7-0.8h-1.8C43.5,28.5,43.4,28.2,43.1,28z"/>
	</g>
	<g id="Layer_5">
		<g id="_x31_5_1_" class="st1">
			<path class="st2" d="M47.4,20.5c-0.6-0.5-1.1-0.9-1.7-1.4l0,0l0,0c-2.6-2.2-5.1-4.4-7.7-6.6c-3.8-3.3-7.7-6.6-11.5-9.9
				c-1.4-1.2-2.7-1.2-4-0.2c-2.7,2.3-5.3,4.6-8,6.9c-0.2,0.2-0.5,0.4-1,0.8V7.2C13.5,6.5,13,6,12.4,6h-4C7.8,6,7.3,6.5,7.3,7.2
				c0,2.7,0,5,0,7.4c0,0.5-0.3,1.2-0.7,1.5c-1.8,1.6-3.6,3.1-5.4,4.7c-1,0.9-1.2,2.3-0.6,3.4c0.6,1,1.9,1.6,3.1,1.2
				C4,25.3,4.3,25.1,4.5,25v18.1c0,0.1,0,0.2,0,0.3H2.8v3.4h28.4c-0.5-1.1-1-2.2-1.4-3.4H21c0.1-0.1,0.1-0.2,0.1-0.4
				c0-2.2,0-4.3,0-6.5c0-2,0-4,0-5.9c0-0.4,0-0.8-0.1-1.2c-0.4-2.9-3.1-4.9-5.7-4.2c-2.2,0.6-3.7,2.8-3.7,5.5V43
				c0,0.2,0,0.4,0.1,0.4H8c0-0.1,0-0.2,0-0.3V28.8l0,0v-6.5c0-0.1,0-0.2,0-0.3c5.1-4.4,10.2-8.7,15.3-13.1l0.5-0.4
				c0.6-0.4,1-0.3,1.7,0.3c3.5,3,7,6,10.5,9c2.6,2.3,5.3,4.6,7.9,6.8c1.8,1.5,4.3,0.7,4.7-1.4C48.8,22,48.3,21.2,47.4,20.5z"/>
			<path class="st3" d="M23.7,16.3c0,2.1,0,4.1,0,6.2c1.2,0,2.3,0,3.5,0c0-2.1,0-4.1,0-6.2C26,16.3,24.9,16.3,23.7,16.3z"/>
			<path class="st3" d="M18.4,16.3c0,2.1,0,4.1,0,6.2c1.2,0,2.3,0,3.5,0c0-2.1,0-4.1,0-6.2C20.7,16.3,19.6,16.3,18.4,16.3z"/>
		</g>
		<g class="st1">
			<path class="st3" d="M37,46.7L37,46.7L37,46.7z"/>
			<path class="st3" d="M49.1,29.2c0-1.1-0.4-1.9-1.2-2.2c-0.4-0.2-0.8-0.3-1.3-0.3c-4.1,0-8.3,0-12.4,0c-0.5,0-1,0.1-1.3,0.3
				c-0.8,0.4-1.2,1.1-1.2,2.2c0,3.1,0,4.1,0,7.2c0,3.2,0,6.3,0,9.5c0,1.6,0.9,2.5,2.5,2.5c2.1,0,4.2,0,6.2,0c2.1,0,4.2,0,6.2,0
				c1.6,0,2.5-0.9,2.5-2.5c0-3.2,0-6.3,0-9.5C49.1,33.3,49.1,32.4,49.1,29.2z M38.9,45.3c-0.2,0-0.4,0-0.6,0h-0.5v0.2
				c0,0.3,0,0.5,0,0.8c0,0.5-0.4,0.8-0.9,0.8l0,0c-0.5,0-0.8-0.3-0.9-0.8c0-0.2,0-0.3,0-0.5v-0.5h-1c-0.3,0-0.5-0.1-0.6-0.2
				c-0.2-0.2-0.2-0.4-0.2-0.6c0-0.5,0.3-0.9,0.9-0.9c0.3,0,0.6,0,1,0h0.1c0-0.3,0-0.6,0-0.9c0-0.4,0.2-0.8,0.7-0.8
				c0.6-0.1,1.1,0.3,1.1,0.9c0,0.3,0,0.6,0,0.8v0.1h0.7h0.4c0.5,0,0.9,0.4,0.9,0.9C39.8,44.9,39.4,45.3,38.9,45.3z M38.3,37.5
				c0.2,0.2,0.4,0.4,0.6,0.6c0.3,0.3,0.4,0.8,0.1,1.1c-0.2,0.2-0.4,0.4-0.7,0.4c-0.2,0-0.5-0.1-0.6-0.3c-0.2-0.2-0.4-0.4-0.6-0.7H37
				l-0.7,0.7c-0.2,0.2-0.4,0.3-0.6,0.3c-0.1,0-0.3,0-0.4-0.1c-0.3-0.2-0.5-0.4-0.6-0.8c0-0.3,0.1-0.6,0.3-0.8s0.4-0.4,0.6-0.6l0,0
				c-0.3-0.3-0.5-0.5-0.8-0.8c-0.2-0.2-0.3-0.4-0.3-0.6c0-0.2,0.1-0.4,0.3-0.6c0.4-0.4,0.9-0.4,1.2,0c0.1,0.1,0.3,0.3,0.4,0.4
				l0.4,0.4c0.2-0.2,0.4-0.4,0.7-0.7c0.2-0.2,0.5-0.3,0.6-0.3c0.2,0,0.4,0.1,0.7,0.3c0.3,0.4,0.3,0.8,0,1.2
				c-0.2,0.2-0.4,0.4-0.6,0.6L38.3,37.5L38.3,37.5z M45.6,37.1c-0.5,0-1,0-1.5,0s-1,0-1.5,0s-0.8-0.4-0.8-0.9c0-0.3,0.1-0.5,0.2-0.6
				c0.2-0.2,0.4-0.2,0.6-0.2h3c0.3,0,0.5,0.1,0.7,0.3s0.2,0.4,0.2,0.6C46.4,36.7,46.1,37.1,45.6,37.1z M46.4,38.6
				c0,0.3,0,0.5-0.2,0.7c-0.1,0.1-0.3,0.3-0.7,0.3c-0.2,0-0.4,0-0.6,0h-2.4c-0.5,0-0.7-0.3-0.8-0.5c-0.1-0.3-0.1-0.7,0.1-0.9
				c0.2-0.2,0.4-0.4,0.7-0.4s0.6,0,0.8,0H45c0.1,0,0.3,0,0.4,0C46.1,37.9,46.4,38.2,46.4,38.6z M45.8,45.3h-3.3l0,0
				c-0.5,0-0.8-0.4-0.8-0.9c0-0.3,0.1-0.5,0.2-0.6c0.2-0.2,0.4-0.2,0.6-0.2c0.5,0,1.1,0,1.6,0h1.6c0.5,0,0.8,0.4,0.8,0.9
				C46.7,44.9,46.3,45.3,45.8,45.3z M47.1,32.8H33.8l-0.3-4h13.9L47.1,32.8z"/>
		</g>
	</g>
	<g id="Layer_6" class="st1">
		<g>
			<polygon class="st3" points="32.1,18.5 32.1,18.4 32.1,18.4 			"/>
			<path class="st3" d="M40.9,5.8c0-0.8-0.3-1.3-0.9-1.6C39.7,4.1,39.4,4,39,4c-3,0-6,0-8.9,0c-0.4,0-0.7,0.1-1,0.2
				c-0.6,0.3-0.9,0.8-0.9,1.6c0,2.3,0,2.9,0,5.2s0,4.5,0,6.8c0,1.2,0.6,1.8,1.8,1.8c1.5,0,3,0,4.5,0s3,0,4.5,0
				c1.2,0,1.8-0.6,1.8-1.8c0-2.3,0-4.6,0-6.8C40.9,8.8,40.9,8.1,40.9,5.8z M33.5,17.4c-0.1,0-0.3,0-0.4,0h-0.3v0.2
				c0,0.2,0,0.4,0,0.6c0,0.3-0.3,0.6-0.7,0.6l0,0c-0.4,0-0.6-0.2-0.6-0.6c0-0.1,0-0.2,0-0.3v-0.4h-0.7c-0.2,0-0.3-0.1-0.5-0.2
				c-0.1-0.1-0.2-0.3-0.2-0.5c0-0.4,0.3-0.6,0.6-0.6c0.2,0,0.5,0,0.7,0h0.1c0-0.2,0-0.4,0-0.7s0.2-0.5,0.5-0.6
				c0.4-0.1,0.8,0.2,0.8,0.6c0,0.2,0,0.4,0,0.6v0.1h0.5h0.3c0.4,0,0.6,0.3,0.6,0.6C34.1,17.1,33.9,17.4,33.5,17.4z M33.1,11.8
				c0.2,0.2,0.3,0.3,0.5,0.5s0.3,0.6,0.1,0.8c-0.1,0.2-0.3,0.3-0.5,0.3s-0.3-0.1-0.5-0.2c-0.2-0.2-0.3-0.3-0.5-0.5l-0.1-0.1
				l-0.5,0.5c-0.2,0.2-0.3,0.2-0.4,0.2s-0.2,0-0.3-0.1c-0.2-0.1-0.4-0.3-0.4-0.5s0.1-0.4,0.2-0.6c0.1-0.1,0.3-0.3,0.4-0.4l0,0
				c-0.2-0.2-0.4-0.4-0.5-0.5s-0.2-0.3-0.2-0.4c0-0.2,0.1-0.3,0.2-0.4c0.3-0.3,0.6-0.3,0.9,0c0.1,0.1,0.2,0.2,0.3,0.3l0.3,0.3
				c0.2-0.2,0.3-0.3,0.5-0.5s0.3-0.2,0.5-0.2c0.1,0,0.3,0,0.5,0.2c0.2,0.3,0.2,0.6,0,0.9C33.5,11.5,33.3,11.7,33.1,11.8L33.1,11.8
				L33.1,11.8z M38.3,11.5c-0.4,0-0.7,0-1.1,0c-0.4,0-0.7,0-1.1,0c-0.4,0-0.6-0.3-0.6-0.6c0-0.2,0.1-0.3,0.2-0.5
				c0.1-0.1,0.3-0.2,0.4-0.2h2.2c0.2,0,0.4,0.1,0.5,0.2c0.1,0.1,0.2,0.3,0.2,0.5C38.9,11.2,38.7,11.5,38.3,11.5z M38.9,12.6
				c0,0.2,0,0.4-0.1,0.5s-0.2,0.2-0.5,0.2c-0.1,0-0.3,0-0.4,0h-1.7c-0.4,0-0.5-0.2-0.6-0.3c-0.1-0.2-0.1-0.5,0-0.7s0.3-0.3,0.5-0.3
				s0.4,0,0.6,0h1.2c0.1,0,0.2,0,0.3,0C38.6,12.1,38.9,12.3,38.9,12.6z M38.5,17.4h-2.4l0,0c-0.4,0-0.6-0.3-0.6-0.6
				c0-0.2,0.1-0.3,0.2-0.5c0.1-0.1,0.3-0.2,0.4-0.2c0.4,0,0.8,0,1.2,0h1.2c0.4,0,0.6,0.3,0.6,0.6C39.1,17.1,38.8,17.4,38.5,17.4z
				 M39.4,8.4h-9.6l-0.2-2.9h10L39.4,8.4z"/>
		</g>
		<g id="_x32_7_1_">
			<g>
				<path class="st2" d="M48.9,16.4c-0.2-0.2-0.5-0.3-0.6-0.3l0,0c-0.1,0-0.1,0-0.2,0c-0.3,0-0.6,0-1,0h-0.9c-0.5,0-1,0-1.5,0
					c-0.3,0-0.6,0.2-0.7,0.4c-0.1,0.3,0,0.5,0.1,0.7c0.1,0.1,0.2,0.2,0.2,0.3l0.1,0.1c0.2,0.2,0.3,0.4,0.5,0.6l-9.6,7.7
					c-0.3-0.1-0.7-0.1-1.1,0L29,21.7c0-0.8-0.5-1.5-1.1-1.8c-0.9-0.5-2.1-0.1-2.7,0.7l-0.6,0.1h-0.2L21.1,21
					c-0.3,0.1-0.6,0.2-0.8,0.5c-0.2,0.3-0.3,0.6-0.2,1c0,0.1,0.1,0.3,0.1,0.4c0.1,0.1,0.1,0.3,0.2,0.3c0.1,0.1,0.2,0.2,0.2,0.2
					l0.1,0.1c0.2,0.1,0.3,0.1,0.6,0.1l3.9-0.6c0.5,0.6,1.4,0.9,2.2,0.6l5.1,4.2c0,0.8,0.4,1.5,1.2,1.9c0.1,0,0.1,0.1,0.2,0.1
					c0.2,0.1,0.5,0.1,0.7,0.1c0.7,0,1.4-0.4,1.8-1c0.2-0.4,0.3-0.8,0.3-1.2l9.7-7.7c0.2,0.3,0.5,0.6,0.7,0.9
					c0.1,0.1,0.4,0.3,0.7,0.3H48c0.3-0.1,0.5-0.4,0.6-0.7l0.2-1.5c0.1-0.6,0.2-1.2,0.2-1.8c0-0.1,0-0.1,0-0.2
					C49,16.9,49.1,16.6,48.9,16.4z M27.9,22.1c-0.2,0.4-0.6,0.7-1.1,0.7l0,0c-0.2,0-0.4,0-0.5-0.1c0,0-0.1,0-0.1-0.1h-0.1
					c-0.5-0.4-0.6-1-0.4-1.6c0.3-0.6,1-0.8,1.6-0.6h0.1c0.3,0.1,0.5,0.4,0.6,0.7C28.1,21.5,28.1,21.8,27.9,22.1z M35.7,28.3
					c-0.2,0.3-0.5,0.6-0.8,0.6c-0.1,0-0.2,0-0.3,0s-0.3,0-0.4-0.1h-0.1L34,28.9c-0.2-0.1-0.3-0.2-0.4-0.4c-0.3-0.4-0.3-0.9-0.1-1.3
					c0.3-0.5,1-0.8,1.6-0.5C35.8,27,36,27.7,35.7,28.3z"/>
				<path class="st3" d="M46.6,32.2c0,1.2,0,8.7,0,9.9c0,0.7-0.2,0.9-0.9,0.9h-2.9c-0.6,0-0.8-0.2-0.8-0.8c0-2.5,0-11.3,0-13.9v-2.6
					l4.2-3.4c0.1,0.1,0.2,0.2,0.4,0.2C46.6,25.8,46.6,29,46.6,32.2z"/>
				<path class="st3" d="M40.1,27.2v14.9c0,0.7-0.2,0.9-0.9,0.9c-1,0-1.9,0-2.8,0c-0.6,0-0.9-0.3-0.9-0.9V31.5
					c1-0.2,1.8-0.8,2.3-1.7c0.2-0.4,0.4-0.8,0.5-1.2L40.1,27.2z"/>
			</g>
			<g>
				<path class="st2" d="M17,20.9c-0.1-1.6-0.2-3.2-0.3-4.8c-0.1-1.4-0.7-2-2.1-2.1c-0.3,0-0.6,0-1-0.1h-0.1
					c-0.3-0.1-0.6-0.1-0.9-0.1c-0.2,0-0.3,0-0.5-0.1c-0.1,0-0.2,0-0.3,0h-0.1c0,0,0,0,0,0.1c-0.3,2-0.8,4-1.5,5.8l-0.5-3.8
					c0-0.1,0.1-0.2,0.1-0.3l0,0c0-0.1,0.1-0.1,0.1-0.2c0,0,0,0,0-0.1S10,15,10,14.9s0-0.2-0.1-0.2l0,0l0,0c0,0,0,0,0-0.1l0,0l0,0
					c-0.1-0.1-0.1-0.1-0.2-0.1l0,0H9.6c0,0,0,0-0.1,0s-0.3,0-0.6,0s-0.5,0-0.6,0c0,0,0,0-0.1,0h0.1l0,0c0,0-0.1,0-0.2,0.1l0,0l0,0
					c0,0,0,0,0,0.1l0,0l0,0C8,14.8,8,14.9,8,15s0,0.2,0.1,0.3c0,0,0,0,0,0.1s0.1,0.1,0.1,0.2l0,0c0,0.1,0.1,0.2,0.1,0.3
					c0,0-0.5,3.6-0.5,3.8c-0.2-0.4-0.3-0.8-0.4-1.2l-0.6-2.1c-0.2-0.8-0.3-1.6-0.5-2.5c0,0,0,0,0-0.1H6.2c-0.1,0-0.2,0-0.3,0
					c-0.2,0-0.3,0-0.5,0.1c-0.3,0-0.6,0.1-0.9,0.1H4.4c-0.3,0-0.6,0.1-1,0.1c-1.4,0.1-2,0.7-2.1,2.1C1.2,17.8,1,19.4,1,21
					c0,0.5,0,1,0,1.5c0.1,1.1,0.3,2.1,0.4,3.2c0.1,0.4,0.2,0.8,0.4,1.1c0.3,0.3,0.6,0.6,1.1,0.8c0.3,0.1,0.6,0.2,0.9,0.2
					c0,0.1,0,0.1,0,0.2c0,0.5,0.1,2.6,0.3,5.1l0,0c0,0.1,0,0.1,0,0.2l0,0c0.2,2.9,0.5,6.1,0.6,8.1c0,0.1,0,0.3,0,0.4
					c0,0.9,0.3,1.5,0.7,1.9l0,0c0.3,0.2,0.6,0.4,0.9,0.4s0.7,0,1.2-0.1s0.9-0.4,1.3-0.7c0.5,0.3,0.9,0.5,1.3,0.7
					c0.4,0.1,0.8,0.2,1.2,0.1c0.4,0,0.7-0.2,0.9-0.4l0,0c0.5-0.4,0.7-1.1,0.7-1.9c0-0.1,0-0.2,0-0.4c0.2-1.9,0.4-5.2,0.6-8.1l0,0
					c0-0.1,0-0.1,0-0.2l0,0c0.2-2.5,0.3-4.6,0.3-5.1c0-0.1,0-0.1,0-0.2c0.3-0.1,0.6-0.1,0.9-0.2c0.4-0.1,0.7-0.4,1-0.7
					c0.2-0.3,0.4-0.7,0.5-1.2c0.2-1.1,0.3-2.2,0.4-3.3C17,21.8,17,21.4,17,20.9z"/>
				<path class="st2" d="M5.6,9.2c0.1,0.2,0.3,0.4,0.5,0.6c0.1,0,0.1,0.1,0.1,0.2c0.1,0.7,0.4,1.3,0.8,1.9c1,1.3,3.1,1.3,4-0.1
					c0.4-0.6,0.6-1.2,0.7-1.8c0-0.1,0-0.1,0.1-0.2c0.3-0.2,0.4-0.4,0.5-0.6c0.2-0.3,0.3-0.6,0.1-0.8c0-0.1-0.1-0.1-0.1-0.2
					c0,0,0,0-0.1-0.1c0-0.2,0-0.4,0-0.6c0.3-1.3-0.3-2.3-1.6-3c-1.1-0.6-2.3-0.6-3.4,0c0,0.1-0.2,0.1-0.3,0.2
					C6.4,4.9,6.1,5.3,5.8,5.8C5.6,6.3,5.5,6.9,5.6,7.5l0,0c0,0.2,0,0.4,0.1,0.6c-0.1,0-0.2,0.1-0.2,0.2c0,0-0.1,0-0.1,0.1
					C5.3,8.6,5.3,8.9,5.6,9.2L5.6,9.2z"/>
			</g>
		</g>
		<path class="st3" d="M27.6,29.9h2.6l1-1.3h-9.6l-1,1.3h1.7c1.7,0,3.3,0.1,3.9,1.4h-4.6l-1,1.3h5.7l0,0c0,0.9-0.9,2.5-3.8,2.5h-1.4
			v1.3l5.7,6.4h2.5l-5.9-6.6c2.5-0.1,4.7-1.3,4.9-3.5h1.8l1-1.3h-2.9C28.3,30.8,28,30.3,27.6,29.9z"/>
	</g>
	<g id="Layer_3" class="st1">
		<rect x="56.1" y="-18.5" class="st3" width="6.9" height="4.8"/>
	</g>
</g>
<g id="Layer_2_1_">
	<g id="_x31_2">
		<path class="st2" d="M35.7,28.2c0,0.1,0,0.2,0,0.3c0.1,0.3,0.1,0.6,0.1,1c0.1,0.7,0.2,1.5,0.3,2.2c0.4,3.7,0.6,7.4,0.7,11.1v0.1
			c-0.2,4.1-3.4,5.7-5.5,5.7h0l-11.2,0.1H8.8c-2.1,0-5.3-1.6-5.5-5.7l0-0.1v-0.1c0.1-4.1,0.3-8.3,0.8-12.5c0.1-0.6,0.1-1.1,0.2-1.7
			c0.1-0.4,0.1-0.8,0.2-1.1c0.1-0.8,0.3-1.5,0.4-2.2C5.1,24,5.5,22.9,6,21.8c0.1-0.4,0.3-0.7,0.5-1c1.5-3.1,4.2-5,7.1-6.7
			c0.2-0.1,0.4-0.2,0.7-0.4C13.1,12.1,11,9,10.8,8.5c-0.5-1-0.4-2.1,0.1-2.9c0.9-1.6,2.8-1.5,4.4-1.5c0.1,0,0.2,0,0.3,0h0
			c0.1,0,0.2,0,0.3,0h0c0.1-0.2,0.2-0.4,0.3-0.6c0,0,0,0,0-0.1c0.9-1.6,2.2-2,3.1-2c0.1,0,0.2,0,0.3,0c1.3,0,2.4,0.6,3.2,1.8
			C22.9,3.3,23,3.4,23,3.5c0.4-0.2,0.9-0.3,1.4-0.5C24.7,3,25,3,25.2,3c1,0,1.9,0.4,2.5,1.2C28.2,5,28.4,6,28,7
			c-0.2,0.4-0.4,0.8-0.5,1.2c-0.2,0.3-0.3,0.6-0.4,0.9c-0.2,0.8-1.1,3.1-1.6,4.5c0.3,0.1,0.8,0.2,1,0.5c0.2,0.3,0,0.3-0.3,0.3
			c-0.3,0-0.6,0.1-0.9,0.2c-0.2,0-1.1,0.6-1.2,0.6c-0.3-0.1-0.7-0.3-0.8-0.3l0.7-1.9c0.1-0.3,0.9-3.3,1.3-4.4c0.2-0.7,0.7-1.4,1-2.2
			c0.3-0.9-0.3-1.5-1.3-1.3c-0.6,0.1-1.2,0.4-1.8,0.7c-0.6,0.2-1,0.1-1.3-0.4c-0.2-0.3-0.3-0.7-0.5-1c-0.4-0.6-0.9-1-1.7-1
			c-0.8,0.1-1.2,0.5-1.6,1.1c-0.1,0.1-0.2,0.3-0.2,0.5l1.4,5.1c0.1,0.6-0.2,1.1-0.7,1.3c-0.1,0-0.2,0-0.3,0c-0.4,0-0.9-0.3-1-0.8
			l-1.3-4.4c-0.4,0-0.7,0-1.1,0c-0.4,0-0.8,0-1.1,0c-1.1,0.1-1.5,0.7-1.1,1.6c0.7,1.6,3.2,5.2,3.2,5.2h3.8l0.4,0
			c0.6,0,1.2,0.5,1.2,1.2c0,0.3-0.1,0.6-0.3,0.8c-0.2,0.2-0.5,0.3-0.8,0.3h-4.2c-0.5,0.2-0.9,0.5-1.4,0.8c-2.1,1.2-4.1,2.6-5.4,4.6
			c-0.3,0.4-0.5,0.8-0.7,1.2c-0.3,0.5-0.5,1-0.7,1.6c-0.7,1.8-1.1,3.7-1.3,5.6c0,0.2,0,0.4-0.1,0.6l-0.2,2.2
			c-0.4,3.7-0.6,7.5-0.7,11.2c0.2,3.7,3.6,3.8,3.6,3.8h11.2l11.2-0.1c0,0,3.4-0.1,3.5-3.8c-0.1-3.4-0.3-6.8-0.6-10.2L34,30.5
			c-0.1-0.6-0.1-1.2-0.2-1.7c0-0.1,0-0.3-0.1-0.4C34.4,28.4,35.1,28.4,35.7,28.2z"/>
		<path class="st3" d="M43.8,16.7c-1.6,0.1-2.8,1.4-2.7,3c0,0.1,0,0.2,0,0.3l-3.9,1.8l0,0c-0.5-0.7-1.4-1.1-2.4-1.1
			c-0.9,0-1.6,0.5-2.1,1.1l-4.5-2c0-0.1,0-0.3,0-0.5c-0.1-1.6-1.4-2.8-3-2.7c-1.6,0.1-2.8,1.4-2.7,3l0,0l-4.1,1.9
			c-0.5-0.7-1.4-1.1-2.3-1c-1.6,0.1-2.8,1.4-2.7,3c0.1,1.6,1.4,2.8,3,2.7c1.6-0.1,2.8-1.4,2.7-3c0-0.1,0-0.2,0-0.2l4-1.8
			c0.5,0.7,1.4,1.2,2.4,1.2c0.9,0,1.6-0.5,2.1-1.1l4.5,2c0,0.2,0,0.3,0,0.5c0.1,1.6,1.4,2.8,3,2.7c1.6-0.1,2.8-1.4,2.7-3
			c0,0,0-0.1,0-0.1l4-1.8c0.5,0.6,1.4,1,2.3,1c1.6-0.1,2.8-1.4,2.7-3C46.6,17.8,45.3,16.6,43.8,16.7z M18.3,23.7c0,0,0,0.1,0,0.2
			c-0.3,1-1.3,1.6-2.3,1.4l-0.1,0c-1-0.2-1.7-1.2-1.5-2.3c0.1-0.6,0.5-1.1,1-1.4c0.3-0.1,0.5-0.2,0.8-0.2c0.3,0,0.6,0,0.9,0.1
			c0.1,0,0.1,0.1,0.2,0.1c0.2,0.1,0.5,0.3,0.6,0.6c0.2,0.2,0.3,0.5,0.3,0.7C18.3,23.1,18.3,23.4,18.3,23.7z M27.3,19.8
			c0,0,0,0.1,0,0.2c-0.3,1-1.3,1.6-2.3,1.4l-0.1,0c-1-0.2-1.7-1.2-1.5-2.3c0.1-0.6,0.5-1.1,1-1.4c0.3-0.1,0.5-0.2,0.8-0.2
			s0.6,0,0.9,0.1c0.1,0,0.1,0.1,0.2,0.1c0.2,0.1,0.5,0.3,0.6,0.6c0.2,0.2,0.3,0.5,0.3,0.7C27.3,19.2,27.3,19.5,27.3,19.8z
			 M36.8,23.8c0,0,0,0.1,0,0.2c-0.3,1-1.3,1.6-2.3,1.4l-0.1,0c-1-0.2-1.7-1.2-1.5-2.3c0.1-0.6,0.5-1.1,1-1.4
			c0.3-0.1,0.5-0.2,0.8-0.2c0.3,0,0.6,0,0.9,0.1c0.1,0,0.1,0.1,0.2,0.1c0.2,0.1,0.5,0.3,0.6,0.6c0.2,0.2,0.3,0.5,0.3,0.7
			C36.9,23.3,36.9,23.5,36.8,23.8z M45.8,19.9c0,0,0,0.1,0,0.2c-0.3,1-1.3,1.6-2.3,1.4l-0.1,0c-1-0.2-1.7-1.2-1.5-2.3
			c0.1-0.6,0.5-1.1,1-1.4c0.3-0.1,0.5-0.2,0.8-0.2c0.3,0,0.6,0,0.9,0.1c0.1,0,0.1,0.1,0.2,0.1c0.2,0.1,0.5,0.3,0.6,0.6
			c0.2,0.2,0.3,0.5,0.3,0.7C45.9,19.3,45.9,19.6,45.8,19.9z"/>
		<path class="st3" d="M21.8,30.4h2.6l1-1.3h-9.6l-1,1.3h1.7c1.7,0,3.3,0.1,3.9,1.4h-4.6l-1,1.3h5.7l0,0c0,0.9-0.9,2.5-3.8,2.5h-1.4
			v1.3l5.7,6.4h2.5l-5.9-6.6c2.5-0.1,4.7-1.3,4.9-3.5h1.8l1-1.3h-2.9C22.5,31.3,22.2,30.8,21.8,30.4z"/>
	</g>
</g>
<g id="Layer_3_1_" class="st0">
	<circle class="st5" cx="25" cy="25" r="24.1"/>
	<g id="Calculator" class="st1">
		<path class="st6" d="M14.1,9.4h21.8c0.6,0,1.1,0.5,1.1,1.1v29.1c0,0.6-0.5,1.1-1.1,1.1H14.1c-0.6,0-1.1-0.5-1.1-1.1V10.5
			C13,9.9,13.5,9.4,14.1,9.4z"/>
		<path class="st7" d="M33.9,11.6H16.1c-0.6,0-1.1,0.5-1.1,1.1v5c0,0.6,0.5,1.1,1.1,1.1l0,0h17.8c0.6,0,1.1-0.5,1.1-1.1c0,0,0,0,0,0
			v-5C35,12.1,34.5,11.6,33.9,11.6z"/>
		<path class="st8" d="M30.4,11.6H28l-5.3,6.9c-0.1,0.1-0.1,0.2-0.1,0.2H25l5.2-6.8C30.3,11.9,30.3,11.8,30.4,11.6z"/>
		<path class="st8" d="M28.9,15.9c0.2,0.2,0.6,0.1,0.7-0.1l3.2-4.2h-1.3l-2.7,3.6C28.6,15.4,28.7,15.8,28.9,15.9
			C28.9,15.9,28.9,15.9,28.9,15.9z"/>
		<path class="st9" d="M31.1,28.6h2.7c0.6,0,1.1,0.5,1.1,1.1v7.4c0,0.6-0.5,1.1-1.1,1.1h-2.7c-0.6,0-1.1-0.5-1.1-1.1v-7.4
			C30.1,29.1,30.5,28.6,31.1,28.6z"/>
		<path class="st10" d="M15.8,33.8h2.9c0.4,0,0.8,0.3,0.8,0.8v2.9c0,0.4-0.3,0.8-0.8,0.8h-2.9c-0.4,0-0.8-0.3-0.8-0.8v-2.9
			C15,34.2,15.4,33.8,15.8,33.8z"/>
		<path class="st10" d="M20.8,33.8h2.9c0.4,0,0.8,0.3,0.8,0.8v2.9c0,0.4-0.3,0.8-0.8,0.8h-2.9c-0.4,0-0.8-0.3-0.8-0.8v-2.9
			C20,34.2,20.3,33.8,20.8,33.8z"/>
		<path class="st10" d="M25.9,33.8h2.9c0.4,0,0.8,0.3,0.8,0.8v2.9c0,0.4-0.3,0.8-0.8,0.8h-2.9c-0.4,0-0.8-0.3-0.8-0.8v-2.9
			C25.1,34.2,25.4,33.8,25.9,33.8z"/>
		<path class="st10" d="M15.8,28.6h2.9c0.4,0,0.8,0.3,0.8,0.8v2.9c0,0.4-0.3,0.8-0.8,0.8h-2.9c-0.4,0-0.8-0.3-0.8-0.8v-2.9
			C15,29,15.4,28.6,15.8,28.6z"/>
		<path class="st10" d="M20.8,28.6h2.9c0.4,0,0.8,0.3,0.8,0.8v2.9c0,0.4-0.3,0.8-0.8,0.8h-2.9c-0.4,0-0.8-0.3-0.8-0.8v-2.9
			C20,29,20.3,28.6,20.8,28.6z"/>
		<path class="st10" d="M25.9,28.6h2.9c0.4,0,0.8,0.3,0.8,0.8v2.9c0,0.4-0.3,0.8-0.8,0.8h-2.9c-0.4,0-0.8-0.3-0.8-0.8v-2.9
			C25.1,29,25.4,28.6,25.9,28.6z"/>
		<path class="st10" d="M15.7,23.5h2.9c0.4,0,0.8,0.3,0.8,0.8v2.9c0,0.4-0.3,0.8-0.8,0.8h-2.9c-0.4,0-0.8-0.3-0.8-0.8v-2.9
			C15,23.8,15.3,23.5,15.7,23.5z"/>
		<path class="st10" d="M20.7,23.5h2.9c0.4,0,0.8,0.3,0.8,0.8v2.9c0,0.4-0.3,0.8-0.8,0.8h-2.9c-0.4,0-0.8-0.3-0.8-0.8v-2.9
			C19.9,23.8,20.3,23.5,20.7,23.5z"/>
		<path class="st10" d="M25.8,23.5h2.9c0.4,0,0.8,0.3,0.8,0.8v2.9c0,0.4-0.3,0.8-0.8,0.8h-2.9c-0.4,0-0.8-0.3-0.8-0.8v-2.9
			C25,23.8,25.4,23.5,25.8,23.5z"/>
		<path class="st11" d="M31.1,23.5h2.7c0.6,0,1.1,0.5,1.1,1.1v2.2c0,0.6-0.5,1.1-1.1,1.1h-2.7c-0.6,0-1.1-0.5-1.1-1.1v-2.2
			C30.1,23.9,30.5,23.5,31.1,23.5z"/>
		<path class="st12" d="M16.1,20.1h12.3c0.6,0,1.1,0.5,1.1,1.1v0c0,0.6-0.5,1.1-1.1,1.1H16.1c-0.6,0-1.1-0.5-1.1-1.1v0
			C15,20.6,15.5,20.1,16.1,20.1z"/>
		<path class="st13" d="M31.5,20.1h2.4c0.6,0,1.1,0.5,1.1,1.1v0.1c0,0.6-0.5,1.1-1.1,1.1h-2.4c-0.6,0-1.1-0.5-1.1-1.1v-0.1
			C30.4,20.6,30.9,20.1,31.5,20.1z"/>
	</g>
</g>
</svg>
